<svg width="24" height="24" viewBox="0 0 24 24" fill="none" xmlns="http://www.w3.org/2000/svg">
<path fill-rule="evenodd" clip-rule="evenodd" d="M13.4711 1.00061C13.6319 0.993239 13.7926 1.05277 13.9107 1.17171L17.829 5.12001C17.9459 5.23777 18.0056 5.39711 17.9996 5.55759V10.5153C17.8343 10.5052 17.6678 10.5 17.5 10.5C17.275 10.5 17.0522 10.5093 16.8318 10.5275V6.12478H13.4972C13.1749 6.12478 12.9135 5.86118 12.9135 5.53659V2.17698H3.71057C3.41165 2.17698 3.16771 2.42177 3.16771 2.72396V19.2765C3.16771 19.5777 3.41165 19.8235 3.71057 19.8235H9.60897C9.67609 20.2267 9.77336 20.6197 9.8984 21.0001H3.71057C2.76716 21.0001 2 20.2271 2 19.2765V2.72416C2.0002 1.77359 2.76716 1.00061 3.71057 1.00061H13.4711ZM9.89501 16.0103C9.77056 16.3906 9.67386 16.7836 9.60728 17.1867H5.77602C5.45367 17.1867 5.19226 16.9231 5.19226 16.5985C5.19226 16.2737 5.45387 16.0103 5.77602 16.0103H9.89501ZM12.23 12.481C11.8259 12.8351 11.4577 13.2293 11.1317 13.6573H5.77602C5.45367 13.6573 5.19226 13.3937 5.19226 13.0691C5.19226 12.7444 5.45387 12.481 5.77602 12.481H12.23ZM14.081 3.01133L16.0051 4.94821H14.081V3.01133ZM14.2247 10.1281H5.77602C5.45367 10.1281 5.19226 9.8645 5.19226 9.53991C5.19226 9.21511 5.45387 8.95172 5.77602 8.95172H14.2247C14.547 8.95172 14.8084 9.21531 14.8084 9.53991C14.8084 9.8647 14.547 10.1281 14.2247 10.1281Z" fill="#2C5697"/>
<path d="M17 13C15.6242 13 14.5 14.1242 14.5 15.5C14.5 16.8758 15.6242 18 17 18C18.3758 18 19.5 16.8758 19.5 15.5C19.5 14.1242 18.3758 13 17 13Z" fill="#2C5697"/>
<path fill-rule="evenodd" clip-rule="evenodd" d="M12 22.75C12 20.6797 13.5764 19 15.5193 19L16.1318 19C16.1327 19 16.1336 19 16.1344 19H17.8656C17.8664 19 17.8673 19 17.8682 19L18.4807 19C20.4236 19 22 20.6797 22 22.75V23.5833C22 23.6938 21.9588 23.7998 21.8855 23.8779C21.8121 23.9561 21.7127 24 21.609 24H18H16H12.391C12.2873 24 12.1879 23.9561 12.1145 23.8779C12.0412 23.7998 12 23.6938 12 23.5833V22.75Z" fill="#2C5697"/>
</svg>
