<svg width="24" height="24" viewBox="0 0 24 24" fill="none" xmlns="http://www.w3.org/2000/svg">
<path d="M10.2318 13.0991C8.34713 11.841 7.05666 9.82692 6.8498 7.52255C5.06066 8.72864 3.87186 10.6915 3.79968 12.9183C4.81463 13.4393 5.97437 13.7355 7.20542 13.7355C8.28551 13.7351 9.31101 13.5068 10.2318 13.0991Z" fill="#2C5697"/>
<path d="M11.0001 13.553C9.87119 14.1378 8.57809 14.47 7.20531 14.47C5.99759 14.47 4.85237 14.2124 3.8251 13.7527C4.1552 17.2497 7.24669 20 11.0001 20C14.7536 20 17.8451 17.2497 18.1752 13.7527C17.1483 14.2124 16.0027 14.47 14.7949 14.47C13.4222 14.47 12.1291 14.1378 11.0001 13.553Z" fill="#2C5697"/>
<path d="M11.0003 1.03278C9.12885 2.1428 7.82826 4.04695 7.62051 6.24727C8.64734 5.78749 9.79256 5.52991 11.0003 5.52991C12.2076 5.52991 13.3532 5.78749 14.3801 6.24727C14.1723 4.04695 12.8713 2.1428 11.0003 1.03278Z" fill="#2C5697"/>
<path d="M6.82248 6.65884C6.89334 4.16906 8.22606 1.97504 10.2313 0.636392C9.31055 0.228631 8.28548 0 7.20496 0C3.23233 0 0 3.08086 0 6.86733C0 9.18217 1.20772 11.2327 3.05407 12.4774C3.27546 10.0191 4.72922 7.89093 6.82248 6.65884Z" fill="#2C5697"/>
<path d="M15.1507 7.52219C14.9434 9.82655 13.6533 11.841 11.7682 13.0987C12.689 13.5069 13.7141 13.7351 14.7946 13.7351C16.0256 13.7351 17.1858 13.4389 18.2008 12.9179C18.129 10.6916 16.9398 8.72827 15.1507 7.52219Z" fill="#2C5697"/>
<path d="M14.7951 0C13.7145 0 12.6895 0.228211 11.7687 0.636392C13.7739 1.97504 15.1067 4.16948 15.1775 6.65884C17.2712 7.89093 18.725 10.0191 18.9459 12.4778C20.7923 11.2331 22 9.18218 22 6.86775C22 3.08086 18.7681 0 14.7951 0Z" fill="#2C5697"/>
<path d="M11.7498 9.12511C11.2401 9.5291 10.6829 10.0514 10.5377 10.3102C10.4241 10.5145 10.3115 10.7314 10.3115 11.0968C10.3115 11.3875 10.3115 11.953 10.3115 11.953H11.7159C11.7159 11.953 11.7159 11.2436 11.7159 11.0402C11.7159 10.8359 11.7564 10.3757 12.1653 9.94861C12.5728 9.52113 13.5583 8.96947 13.5583 8.25882C13.5583 8.12206 13.5653 6.94576 13.5653 6.94576H12.296C12.296 6.94576 12.2291 7.14503 11.8977 7.33129C11.5773 7.51126 11.2436 7.28179 10.8277 7.02253C10.4114 6.76202 10.0989 6.91514 9.94614 7.02253C9.88848 7.0628 9.81982 7.12909 9.75644 7.19705V6.94618H8.48666V8.94892H9.75644C9.75644 8.94892 9.75644 8.25715 9.75644 8.12206C9.75644 7.9874 9.86736 7.86616 10.0544 7.86616C10.241 7.86616 10.2586 7.95384 10.6996 8.22023C11.1402 8.48746 11.4998 8.34231 11.8048 8.22023C11.9923 8.14514 12.1794 7.99537 12.296 7.89175V8.26302C12.2841 8.43837 12.1499 8.80922 11.7498 9.12511Z" fill="#2C5697"/>
<rect x="11" y="16" width="13" height="7" rx="1" fill="#EE2737"/>
<path d="M13 18.0044L13.63 18V20.5022H15.0742V21H13V18.0044Z" fill="white"/>
<path d="M16.1478 21H15.5178V18.0044H16.1478V21Z" fill="white"/>
<path d="M18.8013 18.0044H19.4701L18.3264 21H17.6673L16.5236 18.0044H17.1924L17.7497 19.6044L17.992 20.4133H18.0017L18.244 19.6044L18.8013 18.0044Z" fill="white"/>
<path d="M19.8482 18.0044H21.9709V18.4933H20.4589V19.2267H21.8788V19.7156H20.4589V20.5111H22V21H19.8482V18.0044Z" fill="white"/>
</svg>
