<svg width="24" height="24" viewBox="0 0 24 24" fill="none" xmlns="http://www.w3.org/2000/svg">
<path d="M18.2902 21.9999H5.71057C4.76716 21.9999 4 21.227 4 20.2764V3.72404C4.0002 2.77347 4.76716 2.00049 5.71057 2.00049H15.4937C15.6489 2.00049 15.7972 2.06289 15.9069 2.17228L19.8291 6.12037C19.9388 6.23097 19.9996 6.38037 19.9996 6.53676V20.2764C19.9996 21.2258 19.2324 21.9999 18.2902 21.9999ZM5.71057 3.17686C5.41165 3.17686 5.16771 3.42165 5.16771 3.72384V20.2764C5.16771 20.5776 5.41165 20.8234 5.71057 20.8234H18.289C18.5831 20.8234 18.8318 20.5728 18.8318 20.2764V6.78035L15.2521 3.17686H5.71057Z" fill="#2C5697"/>
<path d="M19.4157 7.12478H15.4973C15.175 7.12478 14.9136 6.86118 14.9136 6.53659V2.5883C14.9136 2.35071 15.0561 2.13532 15.2744 2.04472C15.4916 1.95412 15.7439 2.00352 15.9108 2.17171L19.8291 6.12001C19.9961 6.2882 20.0463 6.54119 19.9552 6.76119C19.8641 6.98118 19.6529 7.12478 19.4157 7.12478ZM16.0811 5.94821H18.0064L16.0811 4.00826V5.94821Z" fill="#2C5697"/>
<path d="M16.2248 18.1866H7.77614C7.45379 18.1866 7.19238 17.923 7.19238 17.5984C7.19238 17.2736 7.45399 17.0103 7.77614 17.0103H16.2248C16.5471 17.0103 16.8086 17.2738 16.8086 17.5984C16.8086 17.9232 16.5471 18.1866 16.2248 18.1866Z" fill="#2C5697"/>
<path d="M16.2248 14.6573H7.77614C7.45379 14.6573 7.19238 14.3937 7.19238 14.0691C7.19238 13.7444 7.45399 13.481 7.77614 13.481H16.2248C16.5471 13.481 16.8086 13.7446 16.8086 14.0691C16.8086 14.3939 16.5471 14.6573 16.2248 14.6573Z" fill="#2C5697"/>
<path d="M16.2248 11.128H7.77614C7.45379 11.128 7.19238 10.8644 7.19238 10.5398C7.19238 10.2151 7.45399 9.95166 7.77614 9.95166H16.2248C16.5471 9.95166 16.8086 10.2153 16.8086 10.5398C16.8086 10.8646 16.5471 11.128 16.2248 11.128Z" fill="#2C5697"/>
</svg>
