<svg width="24" height="24" viewBox="0 0 24 24" fill="none" xmlns="http://www.w3.org/2000/svg">
<path d="M12 3C10.22 3 8.47991 3.52784 6.99987 4.51677C5.51983 5.50571 4.36628 6.91131 3.68509 8.55585C3.0039 10.2004 2.82567 12.01 3.17294 13.7558C3.5202 15.5016 4.37737 17.1053 5.63604 18.364C6.89471 19.6226 8.49836 20.4798 10.2442 20.8271C11.99 21.1743 13.7996 20.9961 15.4442 20.3149C17.0887 19.6337 18.4943 18.4802 19.4832 17.0001C20.4722 15.5201 21 13.78 21 12C20.9974 9.61384 20.0484 7.32616 18.3611 5.63889C16.6738 3.95162 14.3862 3.00258 12 3V3ZM12.7598 6.12225C12.7595 6.04906 12.7807 5.9774 12.8206 5.91609C12.8606 5.85479 12.9177 5.80652 12.9848 5.77725L15.0675 4.88775C15.1165 4.86685 15.1694 4.85665 15.2227 4.85781C15.276 4.85897 15.3284 4.87148 15.3765 4.8945C16.2419 5.30925 17.0247 5.87802 17.6865 6.573C17.7234 6.61152 17.7516 6.65748 17.7694 6.70779C17.7871 6.7581 17.7939 6.81161 17.7893 6.86475L17.58 9.22875C17.5749 9.29119 17.5543 9.35136 17.5199 9.40376C17.4856 9.45617 17.4387 9.49914 17.3835 9.52875L15.933 10.3065C15.8707 10.3398 15.8003 10.3549 15.7299 10.35C15.6594 10.3451 15.5918 10.3204 15.5348 10.2787L12.9098 8.36925C12.862 8.33434 12.8231 8.28862 12.7964 8.23583C12.7697 8.18303 12.7558 8.12467 12.756 8.0655L12.7598 6.12225ZM6.32925 6.55425C6.98965 5.86499 7.7695 5.30113 8.631 4.89C8.67907 4.86698 8.73149 4.85447 8.78477 4.85331C8.83806 4.85215 8.89098 4.86235 8.94 4.88325L11.0318 5.775C11.0988 5.80427 11.1559 5.85254 11.1959 5.91384C11.2358 5.97515 11.257 6.04681 11.2568 6.12V8.06625C11.2562 8.12485 11.242 8.18251 11.2152 8.23461C11.1883 8.28671 11.1497 8.33179 11.1023 8.36625L8.55225 10.2247C8.49713 10.2652 8.43201 10.2897 8.36393 10.2958C8.29586 10.3019 8.22742 10.2892 8.166 10.2592L6.64425 9.516C6.58616 9.48769 6.53636 9.44485 6.4997 9.39163C6.46304 9.33841 6.44075 9.27662 6.435 9.21225L6.225 6.84675C6.22048 6.79338 6.22745 6.73966 6.24543 6.6892C6.26341 6.63875 6.29199 6.59273 6.32925 6.55425ZM8.826 15.3855L7.98075 16.329C7.93593 16.3789 7.87854 16.4159 7.81456 16.4361C7.75058 16.4563 7.68235 16.4589 7.617 16.4437L5.316 15.9135C5.26409 15.9016 5.2153 15.8788 5.17288 15.8466C5.13047 15.8144 5.0954 15.7736 5.07 15.7267C4.61939 14.892 4.32458 13.9821 4.2 13.0417C4.1931 12.9898 4.19714 12.9371 4.21186 12.8868C4.22659 12.8366 4.25167 12.79 4.2855 12.75L5.72925 11.088C5.78511 11.0238 5.86111 10.9806 5.94479 10.9653C6.02847 10.9501 6.11485 10.9637 6.18975 11.004L7.76475 11.8492C7.8502 11.8948 7.9147 11.9717 7.94475 12.0637L8.9025 15.0232C8.92219 15.0851 8.92548 15.151 8.91208 15.2145C8.89867 15.278 8.86901 15.3369 8.826 15.3855ZM14.826 17.6355L13.6718 19.5682C13.6443 19.6142 13.6074 19.6538 13.5634 19.6844C13.5194 19.7149 13.4694 19.7357 13.4168 19.7452C12.4892 19.914 11.539 19.9153 10.611 19.749C10.5582 19.7395 10.508 19.7188 10.4639 19.6883C10.4198 19.6577 10.3827 19.6181 10.3553 19.572L9.1965 17.6385C9.15533 17.5697 9.13727 17.4896 9.14496 17.4098C9.15266 17.3301 9.1857 17.2549 9.23925 17.1952L10.0838 16.2525C10.119 16.2132 10.1621 16.1818 10.2103 16.1604C10.2585 16.1389 10.3107 16.1279 10.3635 16.128H13.6583C13.711 16.1279 13.7632 16.1389 13.8114 16.1604C13.8596 16.1818 13.9028 16.2132 13.938 16.2525L14.7818 17.1952C14.8351 17.2548 14.8681 17.3299 14.8758 17.4095C14.8835 17.4891 14.8655 17.5691 14.8245 17.6377L14.826 17.6355ZM18.9315 15.7245C18.9061 15.7713 18.871 15.8122 18.8286 15.8444C18.7862 15.8766 18.7374 15.8994 18.6855 15.9112L16.3845 16.4415C16.3191 16.4567 16.2509 16.454 16.1869 16.4338C16.123 16.4136 16.0656 16.3767 16.0208 16.3267L15.1755 15.3832C15.1321 15.3341 15.1023 15.2745 15.0892 15.2103C15.076 15.146 15.0799 15.0795 15.1005 15.0172L16.0583 12.0577C16.0883 11.9657 16.1528 11.8888 16.2383 11.8432L17.8133 10.998C17.8881 10.9579 17.9743 10.9444 18.0578 10.9596C18.1413 10.9749 18.2172 11.018 18.273 11.082L19.7145 12.75C19.7494 12.7902 19.7753 12.8373 19.7905 12.8882C19.8058 12.9392 19.81 12.9928 19.803 13.0455C19.677 13.9848 19.3812 14.8933 18.93 15.7267L18.9315 15.7245Z" fill="#2C5697"/>
</svg>
