<svg width="24" height="24" viewBox="0 0 24 24" fill="none" xmlns="http://www.w3.org/2000/svg">
<path d="M5.4489 6.00094C5.3777 6.0007 5.30801 5.9804 5.24782 5.94236C5.18763 5.90432 5.13939 5.85008 5.10861 5.78587C5.07784 5.72167 5.06579 5.65008 5.07384 5.57934C5.08189 5.50859 5.10972 5.44155 5.15413 5.3859C5.75154 4.64183 6.50836 4.04135 7.36877 3.62875C8.22918 3.21615 9.17123 3.00195 10.1255 3.00195C11.0797 3.00195 12.0217 3.21615 12.8821 3.62875C13.7425 4.04135 14.4994 4.64183 15.0968 5.3859C15.1412 5.44155 15.169 5.50859 15.1771 5.57934C15.1851 5.65008 15.1731 5.72167 15.1423 5.78587C15.1115 5.85008 15.0633 5.90432 15.0031 5.94236C14.9429 5.9804 14.8732 6.0007 14.802 6.00094H5.4489Z" fill="#2C5697"/>
<path d="M6.00018 14.0638C5.90674 14.0638 5.81477 14.0406 5.73255 13.9962C5.65032 13.9518 5.58043 13.8877 5.52917 13.8095C5.47791 13.7314 5.44688 13.6418 5.43889 13.5487C5.4309 13.4556 5.4462 13.362 5.4834 13.2763L6.15844 11.6974C6.17073 11.6689 6.17576 11.6378 6.17307 11.6069C6.17038 11.576 6.16006 11.5462 6.14304 11.5203C6.12601 11.4943 6.10282 11.473 6.07553 11.4582C6.04824 11.4435 6.01771 11.4357 5.98668 11.4356H5.62516C5.47596 11.4356 5.33288 11.3764 5.22739 11.2709C5.12189 11.1654 5.06262 11.0223 5.06262 10.8731C5.06262 10.7239 5.12189 10.5808 5.22739 10.4753C5.33288 10.3698 5.47596 10.3106 5.62516 10.3106H7.12526C7.21915 10.3101 7.31166 10.3332 7.39435 10.3777C7.47703 10.4222 7.54727 10.4867 7.59864 10.5653C7.65002 10.6439 7.68091 10.7341 7.68849 10.8277C7.69607 10.9213 7.6801 11.0153 7.64204 11.1011L6.51697 13.7263C6.47318 13.8268 6.40091 13.9124 6.30908 13.9724C6.21725 14.0324 6.10987 14.0641 6.00018 14.0638Z" fill="#2C5697"/>
<path d="M9.75043 14.0638C9.65699 14.0638 9.56501 14.0406 9.48279 13.9962C9.40057 13.9518 9.33068 13.8877 9.27941 13.8095C9.22815 13.7314 9.19713 13.6418 9.18914 13.5487C9.18115 13.4556 9.19644 13.362 9.23364 13.2762L9.90869 11.6974C9.92098 11.6689 9.926 11.6378 9.92331 11.6069C9.92062 11.576 9.9103 11.5462 9.89328 11.5203C9.87626 11.4943 9.85306 11.473 9.82577 11.4582C9.79848 11.4435 9.76796 11.4357 9.73693 11.4356H9.3754C9.22621 11.4356 9.08313 11.3764 8.97763 11.2709C8.87213 11.1654 8.81287 11.0223 8.81287 10.8731C8.81287 10.7239 8.87213 10.5808 8.97763 10.4753C9.08313 10.3698 9.22621 10.3105 9.3754 10.3105H10.8755C10.9686 10.3106 11.0603 10.3337 11.1423 10.3779C11.2242 10.422 11.294 10.4859 11.3452 10.5636C11.3964 10.6414 11.4275 10.7307 11.4358 10.8234C11.444 10.9162 11.429 11.0095 11.3923 11.0951L10.2672 13.7203C10.2243 13.822 10.1525 13.9088 10.0606 13.9699C9.96865 14.031 9.86078 14.0636 9.75043 14.0638Z" fill="#2C5697"/>
<path d="M13.5007 14.0637C13.4076 14.0635 13.3161 14.0403 13.2342 13.9961C13.1523 13.9518 13.0827 13.888 13.0315 13.8103C12.9803 13.7326 12.9492 13.6434 12.9409 13.5507C12.9326 13.458 12.9473 13.3648 12.9839 13.2792L13.6589 11.7003C13.6712 11.6718 13.6762 11.6407 13.6736 11.6098C13.6709 11.5789 13.6605 11.5491 13.6435 11.5232C13.6265 11.4973 13.6033 11.4759 13.576 11.4612C13.5487 11.4464 13.5182 11.4386 13.4872 11.4386H13.1256C12.9765 11.4386 12.8334 11.3793 12.7279 11.2738C12.6224 11.1683 12.5631 11.0252 12.5631 10.876C12.5631 10.7268 12.6224 10.5837 12.7279 10.4782C12.8334 10.3727 12.9765 10.3135 13.1256 10.3135H14.6257C14.7189 10.3135 14.8105 10.3366 14.8925 10.3808C14.9745 10.425 15.0442 10.4888 15.0954 10.5666C15.1467 10.6443 15.1778 10.7336 15.186 10.8264C15.1942 10.9191 15.1793 11.0125 15.1425 11.098L14.0175 13.7232C13.9741 13.8243 13.9021 13.9105 13.8102 13.971C13.7183 14.0316 13.6107 14.0638 13.5007 14.0637Z" fill="#2C5697"/>
<path d="M19.5011 8.62608C19.1794 8.62633 18.8664 8.72993 18.6082 8.92161C18.3499 9.1133 18.1601 9.38291 18.0667 9.69067C17.9734 9.99844 17.9814 10.3281 18.0896 10.6309C18.1978 10.9338 18.4005 11.1939 18.6678 11.3728C18.6934 11.3899 18.7144 11.4131 18.7289 11.4403C18.7435 11.4676 18.751 11.4979 18.751 11.5288V15.564C18.7511 15.9248 18.6212 16.2735 18.3851 16.5463C18.149 16.819 17.8225 16.9976 17.4654 17.0491C17.4388 17.0528 17.4117 17.0507 17.386 17.043C17.3602 17.0353 17.3364 17.0223 17.3161 17.0047C17.2958 16.9871 17.2795 16.9653 17.2682 16.9409C17.257 16.9165 17.2511 16.89 17.2509 16.8631V8.25105C17.2509 7.95266 17.1324 7.6665 16.9214 7.4555C16.7104 7.24451 16.4242 7.12598 16.1258 7.12598H4.12507C3.82668 7.12598 3.54052 7.24451 3.32953 7.4555C3.11853 7.6665 3 7.95266 3 8.25105V19.8768C3 20.1752 3.11853 20.4614 3.32953 20.6724C3.54052 20.8834 3.82668 21.0019 4.12507 21.0019H16.1258C16.4242 21.0019 16.7104 20.8834 16.9214 20.6724C17.1324 20.4614 17.2509 20.1752 17.2509 19.8768V18.7465C17.2508 18.6987 17.269 18.6526 17.3018 18.6177C17.3346 18.5829 17.3794 18.5619 17.4272 18.559C18.191 18.514 18.9088 18.1789 19.4338 17.6222C19.9587 17.0655 20.2511 16.3292 20.2511 15.564V11.5288C20.2511 11.4979 20.2587 11.4676 20.2732 11.4403C20.2877 11.4131 20.3087 11.3899 20.3344 11.3728C20.6016 11.1939 20.8043 10.9338 20.9125 10.6309C21.0207 10.3281 21.0288 9.99844 20.9354 9.69067C20.842 9.38291 20.6522 9.1133 20.394 8.92161C20.1357 8.72993 19.8227 8.62633 19.5011 8.62608ZM8.62536 18.9393H5.25014C5.10095 18.9393 4.95787 18.88 4.85237 18.7745C4.74688 18.669 4.68761 18.5259 4.68761 18.3767C4.68761 18.2275 4.74688 18.0845 4.85237 17.979C4.95787 17.8735 5.10095 17.8142 5.25014 17.8142H8.62536C8.77456 17.8142 8.91764 17.8735 9.02314 17.979C9.12863 18.0845 9.1879 18.2275 9.1879 18.3767C9.1879 18.5259 9.12863 18.669 9.02314 18.7745C8.91764 18.88 8.77456 18.9393 8.62536 18.9393ZM16.1258 14.2515C16.1258 14.4504 16.0468 14.6412 15.9062 14.7818C15.7655 14.9225 15.5747 15.0015 15.3758 15.0015H4.87512C4.6762 15.0015 4.48542 14.9225 4.34476 14.7818C4.2041 14.6412 4.12507 14.4504 4.12507 14.2515V10.1262C4.12507 9.92725 4.2041 9.73647 4.34476 9.59581C4.48542 9.45515 4.6762 9.37613 4.87512 9.37613H15.3758C15.5747 9.37613 15.7655 9.45515 15.9062 9.59581C16.0468 9.73647 16.1258 9.92725 16.1258 10.1262V14.2515Z" fill="#2C5697"/>
</svg>
