<svg width="24" height="24" viewBox="0 0 24 24" fill="none" xmlns="http://www.w3.org/2000/svg">
<path d="M11.2317 15.099C9.34707 13.8409 8.0566 11.8268 7.84974 9.52246C6.0606 10.7285 4.8718 12.6914 4.79962 14.9182C5.81457 15.4392 6.97431 15.7354 8.20536 15.7354C9.28545 15.735 10.311 15.5067 11.2317 15.099Z" fill="#2C5697"/>
<path d="M12.0002 15.5532C10.8712 16.138 9.57812 16.4703 8.20535 16.4703C6.99762 16.4703 5.8524 16.2127 4.82513 15.7529C5.15523 19.2499 8.24672 22.0002 12.0002 22.0002C15.7536 22.0002 18.8451 19.2499 19.1752 15.7529C18.1484 16.2127 17.0027 16.4703 15.795 16.4703C14.4222 16.4703 13.1291 16.138 12.0002 15.5532Z" fill="#2C5697"/>
<path d="M12.0002 3.03271C10.1288 4.14273 8.82816 6.04688 8.62042 8.2472C9.64725 7.78742 10.7925 7.52984 12.0002 7.52984C13.2075 7.52984 14.3531 7.78742 15.38 8.2472C15.1722 6.04688 13.8712 4.14273 12.0002 3.03271Z" fill="#2C5697"/>
<path d="M7.82248 8.65883C7.89335 6.16905 9.22607 3.97504 11.2313 2.63639C10.3106 2.22863 9.28548 2 8.20496 2C4.23233 2 1 5.08086 1 8.86732C1 11.1822 2.20772 13.2327 4.05408 14.4774C4.27546 12.0191 5.72922 9.89092 7.82248 8.65883Z" fill="#2C5697"/>
<path d="M16.1507 9.52197C15.9434 11.8263 14.6533 13.8408 12.7682 15.0985C13.689 15.5067 14.7141 15.7349 15.7946 15.7349C17.0256 15.7349 18.1858 15.4387 19.2008 14.9177C19.129 12.6914 17.9398 10.7281 16.1507 9.52197Z" fill="#2C5697"/>
<path d="M15.795 2C14.7145 2 13.6894 2.22821 12.7687 2.63639C14.7739 3.97504 16.1066 6.16947 16.1775 8.65883C18.2712 9.89092 19.725 12.0191 19.9459 14.4778C21.7923 13.2331 23 11.1822 23 8.86774C23 5.08086 19.7681 2 15.795 2Z" fill="#2C5697"/>
<path d="M12.7498 11.125C12.2401 11.529 11.6829 12.0513 11.5376 12.3101C11.4241 12.5144 11.3114 12.7313 11.3114 13.0967C11.3114 13.3874 11.3114 13.9529 11.3114 13.9529H12.7159C12.7159 13.9529 12.7159 13.2435 12.7159 13.04C12.7159 12.8357 12.7564 12.3755 13.1653 11.9485C13.5728 11.521 14.5583 10.9693 14.5583 10.2587C14.5583 10.1219 14.5653 8.94564 14.5653 8.94564H13.296C13.296 8.94564 13.2291 9.14491 12.8977 9.33117C12.5772 9.51114 12.2436 9.28167 11.8277 9.02241C11.4113 8.7619 11.0988 8.91502 10.9461 9.02241C10.8885 9.06268 10.8198 9.12896 10.7564 9.19692V8.94606H9.48663V10.9488H10.7564C10.7564 10.9488 10.7564 10.257 10.7564 10.1219C10.7564 9.98728 10.8673 9.86604 11.0544 9.86604C11.241 9.86604 11.2586 9.95372 11.6996 10.2201C12.1402 10.4873 12.4998 10.3422 12.8048 10.2201C12.9923 10.145 13.1793 9.99525 13.296 9.89163V10.2629C13.2841 10.4382 13.1499 10.8091 12.7498 11.125Z" fill="#2C5697"/>
</svg>
