<svg width="24" height="24" viewBox="0 0 24 24" fill="none" xmlns="http://www.w3.org/2000/svg">
<path d="M18.4552 9.1138H18.2607V7.00421C18.2607 3.68915 15.4404 1 11.988 1C8.53555 1 5.71525 3.68915 5.71525 6.98103V9.09062H5.52075C4.01334 9.09062 2.84632 10.3425 3.01651 11.7566L4.08628 20.844C4.23216 22.0727 5.30193 23 6.59051 23H17.4341C18.7227 23 19.8168 22.0727 19.9383 20.844L20.9838 11.7798C21.154 10.3425 19.9626 9.1138 18.4552 9.1138ZM12.766 16.0917L13.0821 18.8272C13.1307 19.1749 12.8389 19.4763 12.4742 19.4763H11.5504C11.1857 19.4763 10.8939 19.1749 10.9425 18.8272L11.2586 16.0917C10.6022 15.8135 10.1402 15.1876 10.1402 14.4457C10.1402 13.4489 10.9912 12.6375 12.0366 12.6375C13.0821 12.6375 13.933 13.4489 13.933 14.4457C13.8844 15.1876 13.4225 15.8135 12.766 16.0917ZM15.0757 9.1138H8.90024V7.00421C8.90024 5.38145 10.2861 4.06006 11.988 4.06006C13.6899 4.06006 15.0757 5.38145 15.0757 7.00421V9.1138Z" fill="#2C5697"/>
</svg>
