<svg width="24" height="24" viewBox="0 0 24 24" fill="none" xmlns="http://www.w3.org/2000/svg">
<path d="M22.3089 8.15649C22.3089 8.14826 22.3048 8.1359 22.3007 8.1277C22.3007 8.12358 22.2966 8.11946 22.2924 8.11535C22.2883 8.0989 22.2801 8.08655 22.2719 8.07011C22.2513 8.03308 22.2266 8.0002 22.1978 7.97552C22.1814 7.96317 22.169 7.95084 22.1526 7.93849C22.1361 7.92617 22.1155 7.91382 22.095 7.90558C22.0785 7.89737 22.058 7.88914 22.0374 7.88502C21.988 7.86446 21.9345 7.86035 21.8769 7.86446C21.7988 7.8727 21.7207 7.8727 21.6384 7.8727C19.9682 7.8727 18.6107 6.51544 18.6107 4.84557C18.6107 4.69339 18.623 4.54122 18.6477 4.38904C18.6518 4.34792 18.656 4.30678 18.6642 4.26978C18.6806 4.18751 18.7012 4.10525 18.7218 4.02299C18.767 3.85437 18.6971 3.67751 18.5613 3.57881C18.549 3.56646 18.5408 3.55825 18.5284 3.5459C18.3927 3.41016 18.1911 3.3896 18.0348 3.48419C18.0019 3.50066 17.9731 3.52534 17.9484 3.55001C17.5288 3.97363 16.994 4.25742 16.4016 4.37672C16.2124 4.41783 16.0149 4.43428 15.8093 4.43428C14.1432 4.43428 12.7857 3.08114 12.7857 1.41541C12.7857 1.19332 12.6047 1.01235 12.3826 1.00412C12.2592 1.00412 12.1275 1 12 1C5.93233 1 1 5.9355 1 11.9979C1 12.2159 1.00412 12.4339 1.02059 12.6519C1.35791 18.4511 6.17914 23 12 23C18.0677 23 23 18.0645 23 11.9979C23 10.6777 22.7696 9.38213 22.3089 8.15649ZM16.0159 11.5349C16.0159 11.8536 15.7563 12.1131 15.4376 12.1131C15.1188 12.1131 14.8595 11.8536 14.8595 11.5349C14.8595 11.2162 15.1188 10.9568 15.4376 10.9568C15.7563 10.9568 16.0159 11.2162 16.0159 11.5349ZM15.0292 7.13785C15.348 7.13785 15.6075 7.39712 15.6075 7.71583C15.6075 8.03454 15.348 8.294 15.0292 8.294C14.7104 8.294 14.4511 8.03454 14.4511 7.71583C14.4511 7.39712 14.7104 7.13785 15.0292 7.13785ZM7.26965 16.079C6.3513 16.079 5.60409 15.332 5.60409 14.4138C5.60409 13.4956 6.3513 12.7487 7.26965 12.7487C8.188 12.7487 8.93501 13.4956 8.93501 14.4138C8.93501 15.332 8.188 16.079 7.26965 16.079ZM6.69137 10.8186C6.69137 10.4999 6.95088 10.2406 7.26965 10.2406C7.58842 10.2406 7.84774 10.4999 7.84774 10.8186C7.84774 11.1373 7.58842 11.3968 7.26965 11.3968C6.95088 11.3968 6.69137 11.1373 6.69137 10.8186ZM7.26965 8.88865C6.3513 8.88865 5.60409 8.14178 5.60409 7.2236C5.60409 6.30542 6.3513 5.55835 7.26965 5.55835C8.188 5.55835 8.93501 6.30542 8.93501 7.2236C8.93501 8.14178 8.188 8.88865 7.26965 8.88865ZM11.0115 10.7455C11.0115 9.82731 11.7585 9.08024 12.6769 9.08024C13.5952 9.08024 14.3425 9.82731 14.3425 10.7455C14.3425 11.6637 13.5952 12.4105 12.6769 12.4105C11.7585 12.4105 11.0115 11.6637 11.0115 10.7455ZM14.1727 20.0809C13.854 20.0809 13.5944 19.8216 13.5944 19.5029C13.5944 19.1842 13.854 18.9247 14.1727 18.9247C14.4915 18.9247 14.751 19.1842 14.751 19.5029C14.751 19.8216 14.4915 20.0809 14.1727 20.0809ZM14.8625 17.3328C13.9441 17.3328 13.1969 16.5859 13.1969 15.6677C13.1969 14.7496 13.9441 14.0025 14.8625 14.0025C15.7808 14.0025 16.5279 14.7496 16.5279 15.6677C16.5279 16.5859 15.7808 17.3328 14.8625 17.3328ZM18.1982 11.9462C17.2799 11.9462 16.5329 11.1994 16.5329 10.2812C16.5329 9.363 17.2799 8.61593 18.1982 8.61593C19.1166 8.61593 19.8638 9.363 19.8638 10.2812C19.8638 11.1994 19.1166 11.9462 18.1982 11.9462Z" fill="#2C5697"/>
</svg>
