<svg width="27" height="30" viewBox="0 0 27 30" fill="none" xmlns="http://www.w3.org/2000/svg">
<mask id="mask0_2594_8171" style="mask-type:luminance" maskUnits="userSpaceOnUse" x="0" y="5" width="21" height="20">
<path d="M17.2613 24.4736H2.73129C1.06129 24.4736 -0.218711 22.9936 0.0312892 21.3336L1.98129 8.22355C2.18129 6.88355 3.33129 5.89355 4.68129 5.89355H15.3213C16.6713 5.89355 17.8313 6.88355 18.0213 8.22355L19.9713 21.3336C20.2213 22.9836 18.9413 24.4736 17.2713 24.4736H17.2613Z" fill="white"/>
</mask>
<g mask="url(#mask0_2594_8171)">
<path fill-rule="evenodd" clip-rule="evenodd" d="M6.55172 6.10352H13.1517C15.5317 6.10352 16.2017 6.10352 17.2317 6.44352C18.4417 6.88352 19.4017 7.84352 19.8517 9.06352C20.1917 10.0935 20.1917 10.7535 20.1917 13.1435V19.7435C20.1917 22.1235 20.1917 22.7935 19.8517 23.8235C19.4117 25.0335 18.4517 25.9935 17.2317 26.4435C16.2017 26.7835 15.5417 26.7835 13.1517 26.7835H6.55172C4.17172 26.7835 3.50172 26.7835 2.47172 26.4435C1.26172 26.0035 0.301719 25.0435 -0.148281 23.8235C-0.488281 22.7935 -0.488281 22.1335 -0.488281 19.7435V13.1435C-0.488281 10.7635 -0.488281 10.0935 -0.148281 9.06352C0.291719 7.85352 1.25172 6.89352 2.47172 6.44352C3.50172 6.10352 4.16172 6.10352 6.55172 6.10352Z" fill="#FBE008"/>
<path d="M18.1013 5.44313C14.6313 2.57313 9.74125 2.57313 6.28125 5.15313C8.41125 5.21313 10.5512 5.86313 12.4412 7.14313C14.8712 8.79313 16.4712 11.2031 17.1512 13.8331C17.2112 13.8731 17.2713 13.9131 17.3313 13.9531C18.7413 14.9031 19.7113 16.2631 20.2013 17.7631C22.6213 13.7731 21.8113 8.50313 18.1013 5.44313Z" fill="#2D549F"/>
<path style="mix-blend-mode:multiply" opacity="0.81" d="M18.1013 5.44313C14.6313 2.57313 9.74125 2.57313 6.28125 5.15313C8.41125 5.21313 10.5512 5.86313 12.4412 7.14313C14.8712 8.79313 16.4712 11.2031 17.1512 13.8331C17.2112 13.8731 17.2713 13.9131 17.3313 13.9531C18.7413 14.9031 19.7113 16.2631 20.2013 17.7631C22.6213 13.7731 21.8113 8.50313 18.1013 5.44313Z" fill="url(#paint0_linear_2594_8171)"/>
<path d="M16.6303 21.1927C16.3403 21.8927 15.9703 22.5827 15.5203 23.2427C14.3503 24.9627 12.8003 26.2627 11.0703 27.1227C14.0703 28.0227 17.4403 26.9327 19.3003 24.2027C20.6303 22.2427 20.8903 19.8627 20.2103 17.7627C19.9703 18.1627 19.7003 18.5427 19.4003 18.9127C18.6103 19.8727 17.6703 20.6327 16.6403 21.2027L16.6303 21.1927Z" fill="#FBE008"/>
<path d="M17.3406 13.953C17.2806 13.913 17.2206 13.873 17.1606 13.833C17.7806 16.233 17.6306 18.813 16.6406 21.193C17.6706 20.623 18.6106 19.863 19.4006 18.903C19.7006 18.533 19.9706 18.153 20.2106 17.753C19.7206 16.253 18.7506 14.903 17.3406 13.943V13.953Z" fill="#009E78"/>
<path style="mix-blend-mode:multiply" d="M17.3406 13.953C17.2806 13.913 17.2206 13.873 17.1606 13.833C17.7806 16.233 17.6306 18.813 16.6406 21.193C17.6706 20.623 18.6106 19.863 19.4006 18.903C19.7006 18.533 19.9706 18.153 20.2106 17.753C19.7206 16.253 18.7506 14.903 17.3406 13.943V13.953Z" fill="url(#paint1_linear_2594_8171)"/>
<path d="M5.82139 20.1133C5.81139 18.6633 6.22139 17.2033 7.09139 15.9133C9.34139 12.6033 13.8014 11.7033 17.1514 13.8333C16.4714 11.1933 14.8714 8.78332 12.4414 7.14332C10.5514 5.86332 8.41139 5.21332 6.28139 5.15332C5.68139 5.60332 5.12139 6.12332 4.63139 6.73332C1.29139 10.7733 1.83139 16.7333 5.82139 20.1133Z" fill="#774D98"/>
<path style="mix-blend-mode:multiply" opacity="0.6" d="M5.82139 20.1133C5.81139 18.6633 6.22139 17.2033 7.09139 15.9133C9.34139 12.6033 13.8014 11.7033 17.1514 13.8333C16.4714 11.1933 14.8714 8.78332 12.4414 7.14332C10.5514 5.86332 8.41139 5.21332 6.28139 5.15332C5.68139 5.60332 5.12139 6.12332 4.63139 6.73332C1.29139 10.7733 1.83139 16.7333 5.82139 20.1133Z" fill="url(#paint2_linear_2594_8171)"/>
<path d="M5.92093 20.2032C5.92093 20.2032 5.85093 20.1432 5.82093 20.1132C1.84093 16.7332 1.30093 10.7732 4.63093 6.73325C5.13093 6.13325 5.68093 5.60325 6.28093 5.15325C2.45093 5.04325 -1.34907 6.82325 -3.65907 10.2232C-7.25907 15.5232 -5.87907 22.7232 -0.579069 26.3232C3.00093 28.7532 7.45093 28.9032 11.0609 27.1232C12.8009 26.2632 14.3509 24.9632 15.5109 23.2432C15.9609 22.5832 16.3209 21.9032 16.6209 21.1932C13.2809 23.0332 9.02093 22.7632 5.91093 20.1932L5.92093 20.2032Z" fill="#E10F33"/>
<path style="mix-blend-mode:multiply" opacity="0.76" d="M5.92093 20.2032C5.92093 20.2032 5.85093 20.1432 5.82093 20.1132C1.84093 16.7332 1.30093 10.7732 4.63093 6.73325C5.13093 6.13325 5.68093 5.60325 6.28093 5.15325C2.45093 5.04325 -1.34907 6.82325 -3.65907 10.2232C-7.25907 15.5232 -5.87907 22.7232 -0.579069 26.3232C3.00093 28.7532 7.45093 28.9032 11.0609 27.1232C12.8009 26.2632 14.3509 24.9632 15.5109 23.2432C15.9609 22.5832 16.3209 21.9032 16.6209 21.1932C13.2809 23.0332 9.02093 22.7632 5.91093 20.1932L5.92093 20.2032Z" fill="url(#paint3_linear_2594_8171)"/>
<path d="M7.09049 15.9134C6.22049 17.2034 5.81049 18.6634 5.82049 20.1134C5.85049 20.1434 5.89049 20.1734 5.92049 20.2034C9.04049 22.7734 13.3005 23.0434 16.6305 21.2034C17.6205 18.8334 17.7705 16.2434 17.1505 13.8434C13.8005 11.7034 9.33049 12.6134 7.09049 15.9234V15.9134Z" fill="#73226B"/>
<path style="mix-blend-mode:multiply" opacity="0.41" d="M7.09049 15.9134C6.22049 17.2034 5.81049 18.6634 5.82049 20.1134C5.85049 20.1434 5.89049 20.1734 5.92049 20.2034C9.04049 22.7734 13.3005 23.0434 16.6305 21.2034C17.6205 18.8334 17.7705 16.2434 17.1505 13.8434C13.8005 11.7034 9.33049 12.6134 7.09049 15.9234V15.9134Z" fill="url(#paint4_linear_2594_8171)"/>
</g>
<path d="M13.3811 5.39373H12.4511C12.4511 5.39373 12.4411 5.39373 12.4411 5.38373V3.46373C12.4411 2.19373 11.5011 1.07373 10.2311 0.953731C8.78109 0.823731 7.57109 1.96373 7.57109 3.38373V5.38373C7.57109 5.38373 7.57109 5.39373 7.56109 5.39373H6.63109C6.63109 5.39373 6.62109 5.39373 6.62109 5.38373V3.49373C6.62109 1.66373 8.02109 0.0837309 9.85109 0.00373093C11.7911 -0.0862691 13.4011 1.46373 13.4011 3.38373V5.38373C13.4011 5.38373 13.4011 5.39373 13.3911 5.39373H13.3811Z" fill="#2F529F"/>
<path d="M16.2303 15.4537C16.0803 15.0737 15.8703 14.7537 15.6003 14.4937C15.5303 14.4237 15.5103 14.3337 15.5203 14.2437L15.6603 13.5537C15.6703 13.4937 15.7103 13.4537 15.7703 13.4337C15.9403 13.3837 16.0903 13.2537 16.1603 13.0737C16.2703 12.7437 16.0603 12.3737 15.6903 12.3337C15.4703 12.3037 15.2403 12.4237 15.1403 12.6237C15.0403 12.8237 15.0603 13.0637 15.1803 13.2237C15.2203 13.2737 15.2303 13.3437 15.2003 13.4037L14.9503 13.9037C14.9103 13.9737 14.7103 13.9037 14.6403 13.8637C14.2603 13.7137 13.8403 13.6337 13.4003 13.6337C12.9603 13.6337 12.5403 13.7137 12.1603 13.8637C11.7803 14.0137 11.4503 14.2237 11.1803 14.4937C10.9103 14.7637 10.7003 15.0837 10.5503 15.4537C10.4003 15.8237 10.3203 16.2337 10.3203 16.6637C10.3203 17.0937 10.4003 17.5037 10.5503 17.8737C10.7003 18.2437 10.9103 18.5737 11.1803 18.8337C11.4503 19.1037 11.7803 19.3137 12.1603 19.4637C12.5403 19.6137 12.9603 19.6937 13.4003 19.6937C13.8403 19.6937 14.2603 19.6137 14.6403 19.4637C15.0203 19.3137 15.3503 19.1037 15.6203 18.8337C15.8903 18.5637 16.1003 18.2437 16.2503 17.8737C16.4003 17.5037 16.4803 17.0937 16.4803 16.6637C16.4803 16.2337 16.4003 15.8237 16.2503 15.4537H16.2303ZM14.5403 17.8837C14.2303 18.1937 13.8403 18.3537 13.3703 18.3537C12.9003 18.3537 12.5003 18.1937 12.2003 17.8837C11.9003 17.5737 11.7403 17.1637 11.7403 16.6537C11.7403 16.1437 11.8903 15.7437 12.2003 15.4237C12.5103 15.1137 12.9003 14.9537 13.3703 14.9537C13.8403 14.9537 14.2403 15.1137 14.5403 15.4237C14.8503 15.7437 15.0003 16.1437 15.0003 16.6537C15.0003 17.1637 14.8503 17.5637 14.5403 17.8837Z" fill="url(#paint5_linear_2594_8171)"/>
<path d="M3.54102 16.6634C3.54102 17.0934 3.62102 17.5034 3.77102 17.8734C3.92102 18.2434 4.13102 18.5734 4.40102 18.8334C4.67102 19.1034 5.00102 19.3134 5.38102 19.4634C5.76102 19.6134 6.18102 19.6934 6.62102 19.6934C7.06102 19.6934 7.48102 19.6134 7.86102 19.4634C8.24102 19.3134 8.57102 19.1034 8.84102 18.8334C9.11102 18.5634 9.32102 18.2434 9.47102 17.8734C9.62102 17.5034 9.70102 17.0934 9.70102 16.6634C9.70102 16.2334 9.62102 15.8234 9.47102 15.4534C9.32102 15.0834 9.11102 14.7534 8.84102 14.4934C8.57102 14.2234 8.24102 14.0134 7.86102 13.8634C7.48102 13.7134 7.06102 13.6334 6.62102 13.6334C6.18102 13.6334 5.76102 13.7134 5.38102 13.8634C5.30102 13.8934 5.11102 13.9634 5.07102 13.9034L4.82102 13.4034C4.79102 13.3434 4.80102 13.2734 4.84102 13.2234C4.96102 13.0534 4.99102 12.8234 4.88102 12.6234C4.77102 12.4234 4.55102 12.3134 4.33102 12.3334C3.96102 12.3834 3.75102 12.7434 3.86102 13.0734C3.92102 13.2534 4.07102 13.3834 4.25102 13.4334C4.31102 13.4534 4.35102 13.4934 4.36102 13.5534L4.50102 14.2434C4.52102 14.3334 4.49102 14.4234 4.42102 14.4934C4.15102 14.7634 3.94102 15.0834 3.79102 15.4534C3.64102 15.8234 3.56102 16.2334 3.56102 16.6634H3.54102ZM4.99102 16.6634C4.99102 16.1634 5.14102 15.7534 5.45102 15.4334C5.76102 15.1234 6.15102 14.9634 6.62102 14.9634C7.09102 14.9634 7.49102 15.1234 7.79102 15.4334C8.10102 15.7534 8.25102 16.1534 8.25102 16.6634C8.25102 17.1634 8.10102 17.5734 7.79102 17.8934C7.48102 18.2134 7.09102 18.3634 6.62102 18.3634C6.15102 18.3634 5.75102 18.2034 5.45102 17.8934C5.15102 17.5834 4.99102 17.1734 4.99102 16.6634Z" fill="url(#paint6_linear_2594_8171)"/>
<rect x="10" y="22" width="17" height="8" rx="1" fill="#EE2737"/>
<path d="M14.946 23.956H15.594V28H14.928L13.434 25.552C13.35 25.416 13.274 25.272 13.206 25.12C13.138 24.968 13.082 24.83 13.038 24.706H13.02C13.048 24.858 13.068 25.02 13.08 25.192C13.092 25.36 13.098 25.518 13.098 25.666V28H12.45V23.956H13.146L14.61 26.41C14.69 26.546 14.764 26.69 14.832 26.842C14.904 26.99 14.962 27.128 15.006 27.256H15.018C14.994 27.104 14.976 26.944 14.964 26.776C14.952 26.604 14.946 26.442 14.946 26.29V23.956ZM16.913 26.794C16.949 27.058 17.043 27.254 17.195 27.382C17.351 27.506 17.549 27.568 17.789 27.568C17.917 27.568 18.045 27.554 18.173 27.526C18.301 27.498 18.423 27.456 18.539 27.4L18.683 27.856C18.423 27.996 18.103 28.066 17.723 28.066C17.483 28.066 17.273 28.032 17.093 27.964C16.913 27.892 16.763 27.79 16.643 27.658C16.523 27.526 16.433 27.366 16.373 27.178C16.313 26.99 16.283 26.78 16.283 26.548C16.283 26.34 16.309 26.144 16.361 25.96C16.413 25.776 16.493 25.616 16.601 25.48C16.713 25.34 16.855 25.232 17.027 25.156C17.199 25.076 17.405 25.036 17.645 25.036C17.841 25.036 18.013 25.066 18.161 25.126C18.313 25.186 18.439 25.27 18.539 25.378C18.643 25.486 18.719 25.616 18.767 25.768C18.819 25.92 18.845 26.086 18.845 26.266C18.845 26.362 18.837 26.456 18.821 26.548C18.809 26.64 18.793 26.722 18.773 26.794H16.913ZM17.651 25.51C17.411 25.51 17.229 25.59 17.105 25.75C16.985 25.91 16.915 26.122 16.895 26.386H18.251V26.278C18.251 26.034 18.203 25.846 18.107 25.714C18.015 25.578 17.863 25.51 17.651 25.51ZM21.8923 26.5C21.9323 26.632 21.9663 26.772 21.9943 26.92C22.0223 27.064 22.0523 27.234 22.0843 27.43H22.1023C22.1143 27.226 22.1303 27.034 22.1503 26.854C22.1703 26.67 22.1923 26.526 22.2163 26.422L22.4983 25.102H23.1343L22.4443 28H21.8083L21.3643 26.59C21.3123 26.434 21.2703 26.278 21.2383 26.122C21.2103 25.966 21.1863 25.806 21.1663 25.642H21.1543C21.1343 25.806 21.1083 25.966 21.0763 26.122C21.0483 26.278 21.0103 26.434 20.9623 26.59L20.5123 28H19.8763L19.1923 25.102H19.8223L20.1103 26.422C20.1303 26.526 20.1503 26.67 20.1703 26.854C20.1943 27.034 20.2123 27.226 20.2243 27.43H20.2423C20.2703 27.234 20.2983 27.064 20.3263 26.92C20.3543 26.772 20.3883 26.632 20.4283 26.5L20.8603 25.102H21.4663L21.8923 26.5ZM24.2699 26.854H23.8139L23.7119 24.916V23.956H24.3719V24.916L24.2699 26.854ZM24.0419 28.066C23.9059 28.066 23.7999 28.026 23.7239 27.946C23.6519 27.866 23.6159 27.77 23.6159 27.658C23.6159 27.546 23.6519 27.45 23.7239 27.37C23.7999 27.286 23.9059 27.244 24.0419 27.244C24.1779 27.244 24.2819 27.286 24.3539 27.37C24.4299 27.45 24.4679 27.546 24.4679 27.658C24.4679 27.77 24.4299 27.866 24.3539 27.946C24.2819 28.026 24.1779 28.066 24.0419 28.066Z" fill="white"/>
<defs>
<linearGradient id="paint0_linear_2594_8171" x1="12.1013" y1="13.3031" x2="15.3113" y2="8.12313" gradientUnits="userSpaceOnUse">
<stop offset="0.34" stop-color="#2D549F" stop-opacity="0"/>
<stop offset="0.57" stop-color="#2D549F" stop-opacity="0.1936"/>
<stop offset="0.85" stop-color="#2D549F"/>
</linearGradient>
<linearGradient id="paint1_linear_2594_8171" x1="15.8606" y1="18.543" x2="22.2606" y2="13.043" gradientUnits="userSpaceOnUse">
<stop stop-color="#009E78" stop-opacity="0"/>
<stop offset="1" stop-color="#009E78"/>
</linearGradient>
<linearGradient id="paint2_linear_2594_8171" x1="10.4514" y1="15.4833" x2="7.05139" y2="8.58332" gradientUnits="userSpaceOnUse">
<stop stop-color="#774D98" stop-opacity="0"/>
<stop offset="0.14" stop-color="#774D98" stop-opacity="0.01"/>
<stop offset="0.28" stop-color="#774D98" stop-opacity="0.0121"/>
<stop offset="0.42" stop-color="#774D98" stop-opacity="0.0576"/>
<stop offset="0.56" stop-color="#774D98" stop-opacity="0.1849"/>
<stop offset="0.7" stop-color="#774D98" stop-opacity="0.4489"/>
<stop offset="0.84" stop-color="#774D98" stop-opacity="0.9216"/>
<stop offset="0.86" stop-color="#774D98"/>
</linearGradient>
<linearGradient id="paint3_linear_2594_8171" x1="1.56093" y1="12.6632" x2="15.7609" y2="40.4932" gradientUnits="userSpaceOnUse">
<stop offset="0.15" stop-color="#E10F33" stop-opacity="0"/>
<stop offset="0.19" stop-color="#D70F30" stop-opacity="0.0225"/>
<stop offset="0.3" stop-color="#C0102A" stop-opacity="0.2704"/>
<stop offset="0.4" stop-color="#AF1126" stop-opacity="0.6084"/>
<stop offset="0.48" stop-color="#A51123" stop-opacity="0.8836"/>
<stop offset="0.52" stop-color="#A21223"/>
</linearGradient>
<linearGradient id="paint4_linear_2594_8171" x1="9.97049" y1="12.0234" x2="13.9105" y2="24.8734" gradientUnits="userSpaceOnUse">
<stop offset="0.13" stop-color="#801F6A"/>
<stop offset="0.14" stop-color="#7E1F6A" stop-opacity="0.8464"/>
<stop offset="0.19" stop-color="#7B1F6A" stop-opacity="0.4624"/>
<stop offset="0.25" stop-color="#79206A" stop-opacity="0.2116"/>
<stop offset="0.32" stop-color="#76216A" stop-opacity="0.0841"/>
<stop offset="0.4" stop-color="#75216A" stop-opacity="0.0256"/>
<stop offset="0.49" stop-color="#73216A" stop-opacity="0.01"/>
<stop offset="0.63" stop-color="#73216A" stop-opacity="0.01"/>
<stop offset="1" stop-color="#73226B" stop-opacity="0"/>
</linearGradient>
<linearGradient id="paint5_linear_2594_8171" x1="10.2903" y1="16.0137" x2="16.4603" y2="16.0137" gradientUnits="userSpaceOnUse">
<stop stop-color="white"/>
<stop offset="1" stop-color="#EAEAEA"/>
</linearGradient>
<linearGradient id="paint6_linear_2594_8171" x1="3.54102" y1="16.0134" x2="9.71102" y2="16.0134" gradientUnits="userSpaceOnUse">
<stop stop-color="white"/>
<stop offset="1" stop-color="#EAEAEA"/>
</linearGradient>
</defs>
</svg>
