<svg width="24" height="24" viewBox="0 0 24 24" fill="none" xmlns="http://www.w3.org/2000/svg">
<path d="M13.8545 3.35516C14.5465 3.59524 15.174 3.96713 15.6948 4.44583C16.2157 4.92454 16.6177 5.49898 16.874 6.13057C16.9508 6.29662 17.0952 6.42935 17.277 6.50115C17.4588 6.57296 17.664 6.57832 17.8501 6.51611C18.0361 6.4539 18.1886 6.32891 18.2758 6.16714C18.363 6.00538 18.3782 5.81929 18.3183 5.64759C17.9865 4.82836 17.4657 4.08312 16.7908 3.46195C16.1159 2.84078 15.3024 2.35806 14.4052 2.04621C14.2142 1.97984 14.002 1.98514 13.8153 2.06095C13.6286 2.13676 13.4827 2.27687 13.4096 2.45045C13.3366 2.62402 13.3424 2.81686 13.4258 2.98652C13.5093 3.15619 13.6634 3.2888 13.8545 3.35516Z" fill="#2C5697"/>
<path d="M12.1252 3.81738H11.8749C9.5457 3.81738 7.65753 5.53319 7.65753 7.64975V13.4211C7.65753 15.5376 9.5457 17.2534 11.8749 17.2534H12.1252C14.4544 17.2534 16.3425 15.5376 16.3425 13.4211V7.64975C16.3425 5.53319 14.4544 3.81738 12.1252 3.81738Z" fill="#2C5697"/>
<path d="M18.2297 10.8101C18.0254 10.8101 17.8295 10.8838 17.685 11.0151C17.5406 11.1463 17.4594 11.3244 17.4594 11.51V13.5505C17.4788 14.2131 17.3519 14.8725 17.0863 15.4897C16.8206 16.107 16.4216 16.6697 15.9127 17.1446C15.4038 17.6195 14.7954 17.9969 14.1234 18.2546C13.4514 18.5123 12.7294 18.6451 12 18.6451C11.2706 18.6451 10.5486 18.5123 9.87658 18.2546C9.20457 17.9969 8.59618 17.6195 8.08731 17.1446C7.57844 16.6697 7.1794 16.107 6.91375 15.4897C6.6481 14.8725 6.52121 14.2131 6.54058 13.5505V11.51C6.54058 11.3244 6.45942 11.1463 6.31497 11.0151C6.17051 10.8838 5.97458 10.8101 5.77029 10.8101C5.566 10.8101 5.37007 10.8838 5.22561 11.0151C5.08116 11.1463 5 11.3244 5 11.51V13.5505C5.00166 15.1164 5.638 16.6268 6.7875 17.7934C7.93699 18.96 9.51909 19.701 11.2316 19.8748V22.3002C11.2316 22.4858 11.3128 22.6639 11.4572 22.7951C11.6017 22.9264 11.7976 23.0001 12.0019 23.0001C12.2062 23.0001 12.4021 22.9264 12.5466 22.7951C12.6911 22.6639 12.7722 22.4858 12.7722 22.3002V19.8748C14.4841 19.7002 16.0652 18.9589 17.2139 17.7924C18.3626 16.6259 18.9984 15.1158 19 13.5505V11.51C19 11.3244 18.9188 11.1463 18.7744 11.0151C18.6299 10.8838 18.434 10.8101 18.2297 10.8101Z" fill="#2C5697"/>
</svg>
