<svg width="24" height="24" viewBox="0 0 24 24" fill="none" xmlns="http://www.w3.org/2000/svg">
<path d="M5.48465 9.75403C5.54723 9.76105 5.61015 9.76468 5.67312 9.76492C6.06508 9.7651 6.4444 9.62781 6.74365 9.37745C7.04289 9.1271 7.24266 8.77991 7.30745 8.39761C7.315 8.37665 7.32143 8.3553 7.32671 8.33367L7.58946 6.00584C7.59309 5.97545 7.60495 5.94659 7.62378 5.92231C7.6426 5.89803 7.66771 5.87922 7.69644 5.86786C7.72518 5.85651 7.75648 5.85303 7.78704 5.8578C7.81761 5.86257 7.8463 5.87541 7.87011 5.89496L8.46853 6.39291C8.53768 6.45053 8.61763 6.49411 8.70381 6.52117C8.78999 6.54824 8.88071 6.55825 8.9708 6.55064C9.0609 6.54303 9.14859 6.51794 9.22888 6.47681C9.30917 6.43568 9.38048 6.37932 9.43874 6.31094C9.497 6.24255 9.54108 6.16349 9.56844 6.07826C9.59581 5.99303 9.60593 5.90331 9.59824 5.81421C9.59054 5.72511 9.56517 5.63839 9.52358 5.55899C9.482 5.47958 9.425 5.40906 9.35586 5.35144L8.01937 4.23991C7.87647 4.12089 7.70358 4.04248 7.51915 4.01304C7.33471 3.9836 7.14566 4.00423 6.97215 4.07274C6.79865 4.14125 6.64721 4.25506 6.534 4.40203C6.42078 4.549 6.35005 4.72361 6.32933 4.90723L6.16769 6.34121C6.16498 6.36444 6.15748 6.38687 6.14565 6.40711C6.13381 6.42735 6.1179 6.44498 6.0989 6.45889C6.07951 6.4734 6.05718 6.48359 6.03343 6.48875C6.00968 6.49392 5.98509 6.49394 5.96133 6.48882C5.92602 6.48202 5.89025 6.47658 5.85403 6.4725C5.63615 6.44851 5.41563 6.4672 5.20506 6.5275C4.99449 6.58779 4.79799 6.68851 4.62678 6.82391C4.28101 7.09736 4.05924 7.49546 4.01025 7.93062C3.96127 8.36578 4.08909 8.80235 4.3656 9.14431C4.6421 9.48627 5.04464 9.70559 5.48465 9.75403Z" fill="#2C5697"/>
<path d="M8.44787 13.223C8.51098 13.0539 8.50362 12.8669 8.42739 12.7031C8.35117 12.5393 8.21232 12.4122 8.04135 12.3496L7.26546 12.0666C7.09033 12.0021 6.90077 11.9858 6.71703 12.0196C6.53329 12.0533 6.36226 12.1358 6.22221 12.2581C6.08216 12.3805 5.97834 12.5382 5.92185 12.7144C5.86536 12.8905 5.85831 13.0786 5.90146 13.2584L6.04315 13.8468C6.05178 13.8826 6.04846 13.9201 6.03371 13.9538C6.01895 13.9876 5.99355 14.0156 5.9613 14.0339C5.77482 14.14 5.62186 14.2953 5.51953 14.4825C5.4172 14.6696 5.36953 14.8813 5.38185 15.0937C5.39417 15.3061 5.46599 15.5109 5.58929 15.6853C5.71259 15.8597 5.8825 15.9967 6.08003 16.081C6.27755 16.1653 6.4949 16.1936 6.70777 16.1628C6.92064 16.1319 7.12064 16.0432 7.2854 15.9063C7.45016 15.7695 7.57319 15.5901 7.64073 15.3881C7.70827 15.186 7.71766 14.9694 7.66785 14.7624C7.65203 14.6999 7.49314 13.9972 7.43192 13.7421C7.4278 13.7246 7.42855 13.7063 7.43408 13.6892C7.43962 13.6722 7.44973 13.6569 7.46334 13.645C7.47696 13.6331 7.49357 13.6252 7.51141 13.6219C7.52926 13.6186 7.54766 13.6202 7.56467 13.6264C7.64945 13.6573 7.73954 13.6714 7.8298 13.6678C7.92007 13.6642 8.00874 13.6431 8.09076 13.6056C8.17277 13.5682 8.24652 13.5151 8.30779 13.4495C8.36907 13.3838 8.41666 13.3069 8.44787 13.223Z" fill="#2C5697"/>
<path d="M12.771 6.73237C12.771 7.18341 12.9522 7.61597 13.2747 7.9349C13.5972 8.25383 14.0345 8.433 14.4906 8.433C14.9467 8.433 15.3841 8.25383 15.7066 7.9349C16.0291 7.61597 16.2102 7.18341 16.2102 6.73237C16.2102 6.28133 16.0291 5.84877 15.7066 5.52984C15.3841 5.21091 14.9467 5.03174 14.4906 5.03174C14.0345 5.03174 13.5972 5.21091 13.2747 5.52984C12.9522 5.84877 12.771 6.28133 12.771 6.73237Z" fill="#2C5697"/>
<path d="M18.9617 8.92188C18.7275 8.92175 18.5002 9.00043 18.3172 9.145L17.8185 9.53954C17.5859 9.72366 17.3089 9.84485 17.0147 9.89124C16.7205 9.93763 16.4191 9.90762 16.1401 9.80416C15.0758 9.40911 13.9028 9.40911 12.8385 9.80416L12.6177 9.88647C12.3754 9.97658 12.1157 10.0111 11.858 9.98758C11.6002 9.96402 11.3513 9.88293 11.1299 9.75042L10.5528 9.40758C10.3183 9.27147 10.039 9.2324 9.77553 9.29884C9.51209 9.36528 9.28581 9.53187 9.14588 9.76239C9.00595 9.99292 8.96367 10.2687 9.02825 10.5299C9.09282 10.7911 9.25902 11.0165 9.49073 11.1572L10.072 11.5021C10.5597 11.7933 11.108 11.9711 11.6754 12.0221C12.2429 12.0732 12.8146 11.996 13.3475 11.7966C13.3708 11.788 13.3955 11.7836 13.4204 11.7837C13.4719 11.7835 13.5217 11.8023 13.5599 11.8366C13.5981 11.8708 13.6219 11.918 13.6268 11.9687L13.7162 12.8531C13.7235 12.922 13.7094 12.9915 13.6758 13.0523C13.6421 13.1131 13.5904 13.1622 13.5277 13.1932L12.4581 13.7224C11.828 14.0312 11.2981 14.5085 10.9283 15.1001C10.5586 15.6916 10.3639 16.3738 10.3664 17.0693V18.4488C10.3664 18.7194 10.4751 18.979 10.6686 19.1703C10.862 19.3617 11.1245 19.4692 11.3981 19.4692C11.6718 19.4692 11.9342 19.3617 12.1277 19.1703C12.3212 18.979 12.4299 18.7194 12.4299 18.4488V17.0659C12.4287 16.7498 12.5172 16.4397 12.6852 16.1709C12.8532 15.902 13.0941 15.6851 13.3805 15.5448L13.6605 15.4088C13.6757 15.401 13.6927 15.3973 13.7098 15.3981C13.727 15.3988 13.7436 15.4039 13.7581 15.4128C13.7726 15.4218 13.7845 15.4342 13.7928 15.449C13.8011 15.4637 13.8055 15.4803 13.8056 15.4972C13.8072 16.3083 14.0738 17.0971 14.5657 17.7461L15.9689 19.5916C16.0502 19.6988 16.152 19.7891 16.2686 19.8574C16.3852 19.9257 16.5142 19.9706 16.6484 19.9895C16.7825 20.0085 16.9191 20.0011 17.0504 19.9679C17.1816 19.9346 17.305 19.8761 17.4133 19.7957C17.5217 19.7153 17.6131 19.6146 17.6821 19.4993C17.7511 19.384 17.7965 19.2564 17.8157 19.1237C17.8348 18.9911 17.8274 18.856 17.7938 18.7262C17.7601 18.5964 17.701 18.4744 17.6197 18.3672L16.2158 16.521C15.9931 16.2263 15.8725 15.8685 15.8719 15.5006V13.6836L15.8671 13.5816L15.7336 12.264C15.7288 12.2165 15.7341 12.1686 15.7492 12.1233C15.7643 12.0781 15.7889 12.0364 15.8213 12.0011C15.8538 11.9659 15.8933 11.9377 15.9375 11.9185C15.9816 11.8994 16.0293 11.8896 16.0775 11.8898C16.0964 11.8898 16.1153 11.8912 16.134 11.8939C16.6569 11.9801 17.1923 11.9569 17.7056 11.8259C18.219 11.6949 18.6989 11.459 19.1144 11.1334L19.6131 10.7388C19.7799 10.6067 19.9012 10.4266 19.9601 10.2234C20.019 10.0202 20.0126 9.80395 19.9419 9.60448C19.8711 9.40501 19.7395 9.2322 19.5651 9.10992C19.3908 8.98764 19.1823 8.92193 18.9686 8.92188H18.9617Z" fill="#2C5697"/>
</svg>
