<svg width="24" height="24" viewBox="0 0 24 24" fill="none" xmlns="http://www.w3.org/2000/svg">
<path d="M11.4737 15.6066C12.1754 16.0037 12.1754 16.9963 11.4737 17.3934L3.57895 21.8603C2.87719 22.2573 2 21.761 2 20.9669L2 12.0331C2 11.239 2.87719 10.7427 3.57895 11.1397L11.4737 15.6066Z" fill="#2C5697"/>
<path d="M15.2162 21.1791C15.3096 21.1903 15.4035 21.196 15.4975 21.1964C16.0826 21.1967 16.6488 20.9777 17.0955 20.5783C17.5422 20.179 17.8404 19.6251 17.9371 19.0152C17.9484 18.9818 17.958 18.9477 17.9659 18.9132L18.3581 15.1998C18.3635 15.1513 18.3812 15.1053 18.4093 15.0665C18.4374 15.0278 18.4749 14.9978 18.5178 14.9797C18.5607 14.9616 18.6074 14.956 18.653 14.9636C18.6987 14.9712 18.7415 14.9917 18.777 15.0229L19.6703 15.8173C19.7735 15.9092 19.8929 15.9787 20.0215 16.0219C20.1502 16.0651 20.2856 16.081 20.4201 16.0689C20.5546 16.0567 20.6855 16.0167 20.8053 15.9511C20.9252 15.8855 21.0316 15.7956 21.1186 15.6865C21.2055 15.5774 21.2713 15.4513 21.3122 15.3153C21.353 15.1794 21.3681 15.0362 21.3567 14.8941C21.3452 14.752 21.3073 14.6136 21.2452 14.487C21.1831 14.3603 21.0981 14.2478 20.9948 14.1559L18.9998 12.3827C18.7865 12.1929 18.5284 12.0678 18.2531 12.0208C17.9778 11.9738 17.6956 12.0068 17.4366 12.116C17.1776 12.2253 16.9516 12.4069 16.7826 12.6413C16.6136 12.8758 16.508 13.1543 16.4771 13.4473L16.2358 15.7348C16.2317 15.7718 16.2205 15.8076 16.2029 15.8399C16.1852 15.8722 16.1615 15.9003 16.1331 15.9225C16.1041 15.9457 16.0708 15.9619 16.0354 15.9702C15.9999 15.9784 15.9632 15.9784 15.9277 15.9703C15.875 15.9594 15.8216 15.9507 15.7676 15.9442C15.4423 15.906 15.1132 15.9358 14.7988 16.032C14.4845 16.1281 14.1912 16.2888 13.9356 16.5048C13.4195 16.941 13.0884 17.5761 13.0153 18.2703C12.9422 18.9645 13.133 19.6609 13.5457 20.2064C13.9585 20.7519 14.5594 21.1018 15.2162 21.1791Z" fill="#2C5697"/>
<path d="M17.0371 7.6442C17.0371 6.52789 16.7061 5.43664 16.086 4.50845C15.4659 3.58027 14.5846 2.85684 13.5534 2.42964C12.5222 2.00245 11.3876 1.89067 10.2929 2.10845C9.19818 2.32624 8.19265 2.86379 7.40342 3.65315C6.6142 4.44251 6.07673 5.44821 5.85899 6.54307C5.64124 7.63794 5.75299 8.7728 6.18012 9.80414C6.60724 10.8355 7.33056 11.717 8.25858 12.3372C9.18661 12.9574 10.2777 13.2884 11.3938 13.2884C12.8905 13.2884 14.3259 12.6937 15.3842 11.6353C16.4425 10.5768 17.0371 9.14114 17.0371 7.6442ZM8.87754 10.1835C8.71645 10.2765 8.53138 10.3197 8.34576 10.3075C8.16013 10.2953 7.98228 10.2284 7.8347 10.1151C7.68711 10.0019 7.57642 9.84739 7.51662 9.67121C7.45682 9.49503 7.4506 9.30507 7.49875 9.12535C7.54689 8.94564 7.64724 8.78424 7.7871 8.66156C7.92696 8.53889 8.10005 8.46045 8.28448 8.43616C8.46891 8.41187 8.6564 8.44283 8.82324 8.52513C8.99008 8.60742 9.12877 8.73734 9.22178 8.89847C9.3465 9.11453 9.3803 9.37129 9.31574 9.61227C9.25119 9.85325 9.09356 10.0587 8.87754 10.1835ZM9.22178 6.38994C9.12877 6.55106 8.99008 6.68099 8.82324 6.76328C8.6564 6.84557 8.46891 6.87653 8.28448 6.85225C8.10005 6.82796 7.92696 6.74952 7.7871 6.62684C7.64724 6.50417 7.54689 6.34277 7.49875 6.16305C7.4506 5.98334 7.45682 5.79338 7.51662 5.6172C7.57642 5.44102 7.68711 5.28653 7.8347 5.17327C7.98228 5.06001 8.16013 4.99307 8.34576 4.98091C8.53138 4.96874 8.71645 5.01191 8.87754 5.10494C9.09356 5.22969 9.25119 5.43515 9.31574 5.67613C9.3803 5.91712 9.3465 6.17388 9.22178 6.38994ZM11.3938 12.0341C11.2078 12.0341 11.0259 11.979 10.8713 11.8756C10.7166 11.7722 10.5961 11.6253 10.5249 11.4534C10.4537 11.2815 10.435 11.0924 10.4713 10.9099C10.5076 10.7274 10.5972 10.5598 10.7287 10.4283C10.8603 10.2967 11.0279 10.2071 11.2103 10.1708C11.3928 10.1345 11.5819 10.1531 11.7537 10.2243C11.9256 10.2955 12.0725 10.4161 12.1758 10.5708C12.2792 10.7255 12.3344 10.9074 12.3344 11.0934C12.3344 11.3429 12.2353 11.5822 12.0589 11.7586C11.8825 11.935 11.6433 12.0341 11.3938 12.0341ZM11.3938 5.13567C11.2078 5.13567 11.0259 5.0805 10.8713 4.97713C10.7166 4.87377 10.5961 4.72685 10.5249 4.55496C10.4537 4.38307 10.435 4.19393 10.4713 4.01145C10.5076 3.82897 10.5972 3.66135 10.7287 3.52979C10.8603 3.39823 11.0279 3.30864 11.2103 3.27234C11.3928 3.23605 11.5819 3.25468 11.7537 3.32588C11.9256 3.39708 12.0725 3.51765 12.1758 3.67234C12.2792 3.82704 12.3344 4.00892 12.3344 4.19497C12.3344 4.44446 12.2353 4.68373 12.0589 4.86014C11.8825 5.03656 11.6433 5.13567 11.3938 5.13567ZM15.1949 9.83917C15.1019 10.0003 14.9632 10.1302 14.7963 10.2125C14.6295 10.2948 14.442 10.3258 14.2576 10.3015C14.0731 10.2772 13.9 10.1988 13.7602 10.0761C13.6203 9.9534 13.52 9.792 13.4718 9.61229C13.4237 9.43257 13.4299 9.24261 13.4897 9.06643C13.5495 8.89025 13.6602 8.73577 13.8078 8.62251C13.9554 8.50925 14.1332 8.4423 14.3188 8.43014C14.5045 8.41798 14.6895 8.46114 14.8506 8.55417C15.0666 8.67892 15.2243 8.88439 15.2888 9.12537C15.3534 9.36635 15.3196 9.62311 15.1949 9.83917ZM14.8506 6.73423C14.6895 6.82726 14.5045 6.87043 14.3188 6.85827C14.1332 6.8461 13.9554 6.77916 13.8078 6.6659C13.6602 6.55264 13.5495 6.39815 13.4897 6.22197C13.4299 6.04579 13.4237 5.85583 13.4718 5.67612C13.52 5.4964 13.6203 5.335 13.7602 5.21233C13.9 5.08965 14.0731 5.01121 14.2576 4.98693C14.442 4.96264 14.6295 4.9936 14.7963 5.07589C14.9632 5.15818 15.1019 5.28811 15.1949 5.44924C15.3196 5.66529 15.3534 5.92206 15.2888 6.16304C15.2243 6.40402 15.0666 6.60948 14.8506 6.73423Z" fill="#2C5697"/>
<path d="M21.8733 7.63255C21.978 7.45928 22.2433 7.52127 22.2604 7.72302L22.3472 8.74648C22.3548 8.83671 22.4197 8.91174 22.5079 8.93235L23.5081 9.16609C23.7052 9.21217 23.7282 9.48362 23.5417 9.56223L22.5951 9.96102C22.5117 9.99618 22.4603 10.0811 22.468 10.1713L22.5548 11.1948C22.5719 11.3965 22.3208 11.5023 22.1884 11.3491L21.5166 10.5721C21.4574 10.5036 21.3608 10.481 21.2774 10.5162L20.3308 10.915C20.1442 10.9936 19.966 10.7875 20.0708 10.6143L20.6022 9.73525C20.649 9.65776 20.6406 9.55892 20.5814 9.49042L19.9096 8.71343C19.7772 8.56027 19.9181 8.32713 20.1153 8.37321L21.1155 8.60695C21.2036 8.62755 21.2951 8.58904 21.3419 8.51155L21.8733 7.63255Z" fill="#2C5697"/>
<path d="M1.76949 6.01897C1.87424 5.8457 2.13951 5.9077 2.15662 6.10944L2.20881 6.72497C2.21646 6.8152 2.28133 6.89024 2.36951 6.91084L2.97104 7.05142C3.1682 7.0975 3.19121 7.36895 3.00462 7.44756L2.43535 7.6874C2.3519 7.72256 2.30058 7.80745 2.30823 7.89767L2.36042 8.5132C2.37752 8.71495 2.12647 8.82072 1.99405 8.66756L1.59003 8.20026C1.53081 8.13176 1.43421 8.10919 1.35077 8.14434L0.781492 8.38418C0.594903 8.4628 0.416729 8.25672 0.521476 8.08344L0.841055 7.55479C0.887899 7.4773 0.879519 7.37846 0.820298 7.30997L0.416278 6.84267C0.283855 6.6895 0.424791 6.45637 0.621951 6.50244L1.22348 6.64302C1.31165 6.66363 1.40307 6.62511 1.44991 6.54762L1.76949 6.01897Z" fill="#2C5697"/>
</svg>
