<svg width="24" height="24" viewBox="0 0 24 24" fill="none" xmlns="http://www.w3.org/2000/svg">
<path d="M20.0625 15.3772C19.8139 15.3772 19.5754 15.4759 19.3996 15.6518C19.2238 15.8276 19.125 16.0661 19.125 16.3148V17.8151C19.125 18.1632 18.9867 18.4971 18.7406 18.7433C18.4944 18.9895 18.1606 19.1278 17.8125 19.1278C17.4644 19.1278 17.1306 18.9895 16.8844 18.7433C16.6383 18.4971 16.5 18.1632 16.5 17.8151V14.4305C16.4999 14.3909 16.4872 14.3523 16.4637 14.3203C16.4403 14.2884 16.4074 14.2647 16.3697 14.2526C16.3319 14.2405 16.2913 14.2407 16.2537 14.2531C16.2161 14.2655 16.1834 14.2896 16.1603 14.3217C15.7419 14.9066 15.2461 15.432 14.6865 15.8835C14.6673 15.8989 14.6518 15.9184 14.6411 15.9406C14.6305 15.9628 14.625 15.9871 14.625 16.0118V17.8121C14.625 18.6576 14.9608 19.4685 15.5586 20.0663C16.1564 20.6642 16.9671 21.0001 17.8125 21.0001C18.6579 21.0001 19.4686 20.6642 20.0664 20.0663C20.6642 19.4685 21 18.6576 21 17.8121V16.3118C20.9992 16.0637 20.9001 15.8259 20.7244 15.6507C20.5486 15.4755 20.3106 15.3772 20.0625 15.3772Z" fill="#2C5697"/>
<path d="M16.5 9.75113C16.5 8.41588 16.1041 7.11062 15.3624 6.0004C14.6207 4.89019 13.5665 4.02488 12.3331 3.5139C11.0997 3.00293 9.74251 2.86923 8.43314 3.12972C7.12377 3.39022 5.92104 4.0332 4.97703 4.97736C4.03303 5.92152 3.39015 7.12446 3.1297 8.43405C2.86925 9.74364 3.00292 11.1011 3.51382 12.3347C4.02471 13.5683 4.88987 14.6227 5.9999 15.3645C7.10994 16.1063 8.41498 16.5023 9.75 16.5023C11.5402 16.5023 13.2571 15.791 14.523 14.5249C15.7888 13.2588 16.5 11.5416 16.5 9.75113ZM6.74025 12.7884C6.54756 12.8997 6.3262 12.9513 6.10417 12.9367C5.88214 12.9222 5.66941 12.8421 5.49288 12.7066C5.31635 12.5712 5.18396 12.3864 5.11243 12.1757C5.0409 11.9649 5.03346 11.7377 5.09105 11.5228C5.14863 11.3078 5.26866 11.1147 5.43595 10.968C5.60324 10.8213 5.81027 10.7274 6.03088 10.6984C6.25148 10.6694 6.47574 10.7064 6.6753 10.8048C6.87486 10.9032 7.04075 11.0586 7.152 11.2514C7.30118 11.5098 7.34161 11.8169 7.26439 12.1052C7.18717 12.3934 6.99864 12.6392 6.74025 12.7884ZM7.152 8.25088C7.04075 8.44361 6.87486 8.59901 6.6753 8.69744C6.47574 8.79587 6.25148 8.8329 6.03088 8.80385C5.81027 8.77481 5.60324 8.68098 5.43595 8.53425C5.26866 8.38751 5.14863 8.19446 5.09105 7.9795C5.03346 7.76454 5.0409 7.53733 5.11243 7.32659C5.18396 7.11586 5.31635 6.93108 5.49288 6.79561C5.66941 6.66013 5.88214 6.58006 6.10417 6.56551C6.3262 6.55096 6.54756 6.60259 6.74025 6.71387C6.99864 6.86309 7.18717 7.10884 7.26439 7.39709C7.34161 7.68533 7.30118 7.99245 7.152 8.25088ZM9.75 15.002C9.5275 15.002 9.30999 14.936 9.12499 14.8124C8.93998 14.6887 8.79579 14.513 8.71064 14.3074C8.62549 14.1018 8.60321 13.8756 8.64662 13.6573C8.69003 13.439 8.79717 13.2385 8.95451 13.0812C9.11184 12.9238 9.3123 12.8167 9.53053 12.7732C9.74875 12.7298 9.97496 12.7521 10.1805 12.8373C10.3861 12.9224 10.5618 13.0667 10.6854 13.2517C10.809 13.4367 10.875 13.6543 10.875 13.8768C10.875 14.1752 10.7565 14.4614 10.5455 14.6724C10.3345 14.8835 10.0484 15.002 9.75 15.002ZM9.75 6.75063C9.5275 6.75063 9.30999 6.68464 9.12499 6.561C8.93998 6.43736 8.79579 6.26163 8.71064 6.05603C8.62549 5.85043 8.60321 5.62419 8.64662 5.40593C8.69003 5.18766 8.79717 4.98717 8.95451 4.82981C9.11184 4.67245 9.3123 4.56529 9.53053 4.52187C9.74875 4.47846 9.97496 4.50074 10.1805 4.5859C10.3861 4.67107 10.5618 4.81528 10.6854 5.00032C10.809 5.18536 10.875 5.4029 10.875 5.62544C10.875 5.92386 10.7565 6.21005 10.5455 6.42107C10.3345 6.63208 10.0484 6.75063 9.75 6.75063ZM14.2965 12.3766C14.1853 12.5693 14.0194 12.7247 13.8198 12.8231C13.6202 12.9216 13.396 12.9586 13.1754 12.9295C12.9548 12.9005 12.7477 12.8067 12.5804 12.6599C12.4132 12.5132 12.2931 12.3201 12.2355 12.1052C12.178 11.8902 12.1854 11.663 12.2569 11.4523C12.3285 11.2415 12.4609 11.0568 12.6374 10.9213C12.8139 10.7858 13.0266 10.7057 13.2487 10.6912C13.4707 10.6767 13.6921 10.7283 13.8848 10.8396C14.1431 10.9888 14.3317 11.2345 14.4089 11.5228C14.4861 11.811 14.4457 12.1181 14.2965 12.3766ZM13.8848 8.6627C13.6921 8.77397 13.4707 8.8256 13.2487 8.81105C13.0266 8.79651 12.8139 8.71643 12.6374 8.58096C12.4609 8.44549 12.3285 8.2607 12.2569 8.04997C12.1854 7.83924 12.178 7.61203 12.2355 7.39707C12.2931 7.18211 12.4132 6.98905 12.5804 6.84232C12.7477 6.69559 12.9548 6.60176 13.1754 6.57271C13.396 6.54367 13.6202 6.5807 13.8198 6.67913C14.0194 6.77756 14.1853 6.93296 14.2965 7.12569C14.4457 7.38412 14.4861 7.69124 14.4089 7.97948C14.3317 8.26772 14.1431 8.51348 13.8848 8.6627Z" fill="#2C5697"/>
</svg>
