<svg width="24" height="24" viewBox="0 0 24 24" fill="none" xmlns="http://www.w3.org/2000/svg">
<path d="M10.4286 1C7.83429 1 5.71436 3.11996 5.71436 5.71428C5.71436 8.30859 7.83437 10.4286 10.4286 10.4286C13.023 10.4286 15.1429 8.30859 15.1429 5.71428C15.1429 3.11996 13.023 1 10.4286 1Z" fill="#2C5697"/>
<path d="M8.07141 12C4.16744 12 1 15.1675 1 19.0714V20.6429C1.00002 20.8512 1.08281 21.0511 1.23015 21.1984C1.3775 21.3458 1.57734 21.4285 1.78571 21.4286H11.6301C10.8729 20.303 10.4286 18.9507 10.4286 17.5C10.4286 15.2915 11.4563 13.3132 13.0558 12.0138C12.9655 12.0107 12.8769 12 12.7857 12L8.07141 12Z" fill="#2C5697"/>
<path d="M21.0868 15.0711H16.2108V13.7033C16.2097 12.7622 17.0122 11.9967 17.9977 11.9956C18.9843 11.9956 19.7868 12.7611 19.788 13.7011C19.7892 13.8 19.8311 13.8911 19.8998 13.9556C19.9685 14.0211 20.0617 14.0611 20.1666 14.0611H20.4543C20.6639 14.0611 20.8328 13.9 20.8328 13.7011H20.8317C20.8305 12.2111 19.5597 10.9989 17.9977 11C16.4356 11.0011 15.166 12.2133 15.166 13.7033L15.1672 15.0711H15.074H14.9715C14.4345 15.0711 13.9988 15.4878 14 16V20.0722C14 20.5844 14.4368 21 14.9738 21L21.0285 20.9967C21.5655 20.9967 22.0012 20.5811 22 20.0689V15.9956C22 15.5033 21.5958 15.1011 21.0868 15.0711Z" fill="#2C5697"/>
</svg>
