<svg width="24" height="24" viewBox="0 0 24 24" fill="none" xmlns="http://www.w3.org/2000/svg">
<path d="M9.88239 16.3462C9.69518 16.3462 9.51564 16.4149 9.38326 16.5372C9.25088 16.6595 9.17651 16.8253 9.17651 16.9983V21.3456C9.17651 21.5185 9.25088 21.6844 9.38326 21.8067C9.51564 21.9289 9.69518 21.9976 9.88239 21.9976C10.0696 21.9976 10.2491 21.9289 10.3815 21.8067C10.5139 21.6844 10.5883 21.5185 10.5883 21.3456V16.9983C10.5883 16.8253 10.5139 16.6595 10.3815 16.5372C10.2491 16.4149 10.0696 16.3462 9.88239 16.3462Z" fill="#2C5697"/>
<path d="M14.8235 16.3462C14.6363 16.3462 14.4568 16.4149 14.3244 16.5372C14.192 16.6595 14.1176 16.8253 14.1176 16.9983V18.4764C14.1102 18.8642 14.025 19.2475 13.8663 19.6066C13.8492 19.6475 13.819 19.6825 13.7799 19.7073C13.7408 19.732 13.6945 19.7452 13.6471 19.7452C13.5996 19.7452 13.5533 19.732 13.5142 19.7073C13.4751 19.6825 13.4449 19.6475 13.4278 19.6066C13.2691 19.2475 13.1839 18.8642 13.1765 18.4764V16.9983C13.1765 16.8253 13.1021 16.6595 12.9697 16.5372C12.8373 16.4149 12.6578 16.3462 12.4706 16.3462C12.2834 16.3462 12.1038 16.4149 11.9715 16.5372C11.8391 16.6595 11.7647 16.8253 11.7647 16.9983V18.4764C11.8496 19.647 12.2994 20.77 13.0598 21.7099C13.1242 21.7992 13.2116 21.8724 13.314 21.923C13.4165 21.9737 13.5309 22.0002 13.6471 22.0002C13.7632 22.0002 13.8776 21.9737 13.9801 21.923C14.0825 21.8724 14.1699 21.7992 14.2343 21.7099C14.9947 20.77 15.4445 19.647 15.5294 18.4764V16.9983C15.5294 16.8253 15.455 16.6595 15.3226 16.5372C15.1903 16.4149 15.0107 16.3462 14.8235 16.3462Z" fill="#2C5697"/>
<path d="M7.76474 21.3456C7.76474 21.1726 7.69037 21.0067 7.55799 20.8845C7.42562 20.7622 7.24607 20.6935 7.05886 20.6935H6.11769C6.05529 20.6935 5.99544 20.6706 5.95131 20.6298C5.90719 20.589 5.8824 20.5338 5.8824 20.4761V16.9983C5.8824 16.8253 5.80803 16.6595 5.67565 16.5372C5.54327 16.4149 5.36373 16.3462 5.17652 16.3462C4.98931 16.3462 4.80977 16.4149 4.67739 16.5372C4.54501 16.6595 4.47064 16.8253 4.47064 16.9983V20.4761C4.47114 20.8795 4.64483 21.2662 4.9536 21.5515C5.26238 21.8367 5.68102 21.9972 6.11769 21.9976H7.05886C7.24607 21.9976 7.42562 21.9289 7.55799 21.8067C7.69037 21.6844 7.76474 21.5185 7.76474 21.3456Z" fill="#2C5697"/>
<path d="M18.1176 17.8677C18.1176 17.8101 18.1424 17.7548 18.1865 17.714C18.2307 17.6733 18.2905 17.6504 18.3529 17.6504H19.2941C19.4813 17.6504 19.6608 17.5817 19.7932 17.4594C19.9256 17.3371 20 17.1712 20 16.9983C20 16.8253 19.9256 16.6595 19.7932 16.5372C19.6608 16.4149 19.4813 16.3462 19.2941 16.3462H18.3529C17.9163 16.3467 17.4976 16.5071 17.1888 16.7923C16.8801 17.0776 16.7064 17.4643 16.7059 17.8677V20.4761C16.7064 20.8795 16.8801 21.2662 17.1888 21.5515C17.4976 21.8367 17.9163 21.9972 18.3529 21.9976H19.2941C19.4813 21.9976 19.6608 21.9289 19.7932 21.8067C19.9256 21.6844 20 21.5185 20 21.3456C20 21.1726 19.9256 21.0067 19.7932 20.8845C19.6608 20.7622 19.4813 20.6935 19.2941 20.6935H18.3529C18.2905 20.6935 18.2307 20.6706 18.1865 20.6298C18.1424 20.589 18.1176 20.5338 18.1176 20.4761C18.1176 20.4185 18.1424 20.3632 18.1865 20.3224C18.2307 20.2816 18.2905 20.2587 18.3529 20.2587H19.2941C19.4813 20.2587 19.6608 20.19 19.7932 20.0677C19.9256 19.9455 20 19.7796 20 19.6066C20 19.4337 19.9256 19.2678 19.7932 19.1455C19.6608 19.0233 19.4813 18.9546 19.2941 18.9546H18.3529C18.2905 18.9546 18.2307 18.9317 18.1865 18.8909C18.1424 18.8501 18.1176 18.7948 18.1176 18.7372V17.8677Z" fill="#2C5697"/>
<path d="M9.78821 9.40902C9.78821 9.67882 9.84573 9.94598 9.9575 10.1952C10.0693 10.4445 10.2331 10.671 10.4396 10.8618C10.6461 11.0526 10.8913 11.2039 11.1611 11.3071C11.4309 11.4104 11.7201 11.4635 12.0122 11.4635C12.3043 11.4635 12.5935 11.4104 12.8633 11.3071C13.1331 11.2039 13.3783 11.0526 13.5848 10.8618C13.7913 10.671 13.9551 10.4445 14.0669 10.1952C14.1787 9.94598 14.2362 9.67882 14.2362 9.40902C14.2362 9.13921 14.1787 8.87205 14.0669 8.62278C13.9551 8.37352 13.7913 8.14703 13.5848 7.95625C13.3783 7.76547 13.1331 7.61413 12.8633 7.51088C12.5935 7.40763 12.3043 7.35449 12.0122 7.35449C11.7201 7.35449 11.4309 7.40763 11.1611 7.51088C10.8913 7.61413 10.6461 7.76547 10.4396 7.95625C10.2331 8.14703 10.0693 8.37352 9.9575 8.62278C9.84573 8.87205 9.78821 9.13921 9.78821 9.40902Z" fill="#2C5697"/>
<path d="M12.0122 12.21C11.2432 12.2102 10.4941 12.436 9.87286 12.8548C9.25161 13.2735 8.79028 13.8636 8.55533 14.5401C8.54364 14.5727 8.54062 14.6074 8.54651 14.6413C8.55241 14.6752 8.56705 14.7073 8.58921 14.7349C8.61107 14.7619 8.63948 14.7839 8.67217 14.7989C8.70485 14.814 8.7409 14.8219 8.77744 14.8218H15.2433C15.2804 14.8218 15.317 14.8137 15.3501 14.7982C15.3832 14.7826 15.4118 14.7601 15.4337 14.7324C15.4555 14.7046 15.47 14.6725 15.4758 14.6386C15.4816 14.6048 15.4787 14.5701 15.4673 14.5375C15.2316 13.862 14.7702 13.2729 14.1495 12.8547C13.5287 12.4365 12.7805 12.2108 12.0122 12.21Z" fill="#2C5697"/>
<path d="M12 4.6084C11.1042 4.60815 10.2236 4.82267 9.44446 5.23097C8.66527 5.63928 8.01412 6.2274 7.55468 6.93783C7.09524 7.64825 6.84323 8.45667 6.8233 9.28402C6.80337 10.1114 7.01621 10.9293 7.44098 11.6579C7.50184 11.7612 7.59177 11.8474 7.70128 11.9074C7.81078 11.9674 7.93579 11.999 8.0631 11.9988C8.17985 11.9993 8.29482 11.9723 8.39721 11.9205C8.56123 11.838 8.68308 11.6987 8.73602 11.5332C8.78895 11.3678 8.76865 11.1897 8.67957 11.038C8.37117 10.5082 8.21683 9.91352 8.2316 9.3121C8.24637 8.71069 8.42975 8.1231 8.76384 7.60673C9.09792 7.09036 9.57128 6.66288 10.1377 6.36604C10.7041 6.06921 11.3441 5.91317 11.9953 5.91317C12.6465 5.91317 13.2866 6.06921 13.8529 6.36604C14.4193 6.66288 14.8927 7.09036 15.2268 7.60673C15.5609 8.1231 15.7443 8.71069 15.759 9.3121C15.7738 9.91352 15.6194 10.5082 15.3111 11.038C15.2295 11.1897 15.2149 11.3647 15.2704 11.5261C15.3259 11.6875 15.4471 11.8227 15.6084 11.9031C15.7697 11.9835 15.9585 12.0029 16.135 11.9572C16.3115 11.9114 16.4619 11.8041 16.5543 11.6579C16.9789 10.9297 17.1918 10.1121 17.1721 9.2851C17.1523 8.45812 16.9007 7.65 16.4419 6.93969C15.983 6.22939 15.3325 5.6412 14.5539 5.23258C13.7754 4.82397 12.8954 4.6089 12 4.6084Z" fill="#2C5697"/>
<path d="M12 2C9.87904 2.0023 7.84567 2.78167 6.34593 4.16713C4.84618 5.55259 4.00253 7.43103 4.00004 9.39037C3.99412 11.0306 4.58439 12.6251 5.67627 13.9185C5.79109 14.0552 5.96001 14.1442 6.14587 14.1659C6.33173 14.1876 6.5193 14.1402 6.66732 14.0341C6.81534 13.9281 6.91169 13.772 6.93516 13.6003C6.95864 13.4286 6.90732 13.2553 6.7925 13.1186C5.89297 12.0539 5.40672 10.7409 5.4118 9.39037C5.4118 7.77621 6.10591 6.22817 7.34144 5.08678C8.57697 3.9454 10.2527 3.30418 12 3.30418C13.7473 3.30418 15.423 3.9454 16.6586 5.08678C17.8941 6.22817 18.5882 7.77621 18.5882 9.39037C18.5934 10.7416 18.1068 12.0553 17.2066 13.1203C17.1466 13.1876 17.1019 13.2654 17.075 13.3489C17.0482 13.4325 17.0397 13.5202 17.0501 13.6068C17.0606 13.6934 17.0897 13.7772 17.1358 13.8533C17.1819 13.9293 17.2441 13.9961 17.3186 14.0495C17.3931 14.103 17.4784 14.1421 17.5696 14.1646C17.6607 14.1871 17.7558 14.1925 17.8493 14.1804C17.9427 14.1684 18.0326 14.1391 18.1136 14.0945C18.1946 14.0498 18.2651 13.9905 18.3209 13.9202C19.4148 12.627 20.0062 11.0316 20 9.39037C19.9975 7.43103 19.1538 5.55259 17.6541 4.16713C16.1543 2.78167 14.121 2.0023 12 2Z" fill="#2C5697"/>
</svg>
