<svg width="24" height="24" viewBox="0 0 24 24" fill="none" xmlns="http://www.w3.org/2000/svg">
<path d="M18.6667 3H5.33333C4.97971 3 4.64057 3.15804 4.39052 3.43934C4.14048 3.72064 4 4.10218 4 4.5V19.5C4 19.8978 4.14048 20.2794 4.39052 20.5607C4.64057 20.842 4.97971 21 5.33333 21H18.6667C19.0203 21 19.3594 20.842 19.6095 20.5607C19.8595 20.2794 20 19.8978 20 19.5V4.5C20 4.10218 19.8595 3.72064 19.6095 3.43934C19.3594 3.15804 19.0203 3 18.6667 3V3ZM18.6667 19.125C18.6667 19.2245 18.6315 19.3198 18.569 19.3902C18.5065 19.4605 18.4217 19.5 18.3333 19.5H5.66667C5.57826 19.5 5.49348 19.4605 5.43096 19.3902C5.36845 19.3198 5.33333 19.2245 5.33333 19.125V4.875C5.33333 4.77554 5.36845 4.68016 5.43096 4.60984C5.49348 4.53951 5.57826 4.5 5.66667 4.5H18.3333C18.4217 4.5 18.5065 4.53951 18.569 4.60984C18.6315 4.68016 18.6667 4.77554 18.6667 4.875V19.125Z" fill="#2C5697"/>
<path d="M6.83337 6H17.1667V9.75H6.83337V6Z" fill="#2C5697"/>
<path d="M6.83337 11.25H11.5V12.75H6.83337V11.25Z" fill="#2C5697"/>
<path d="M6.83337 13.875H11.5V15.375H6.83337V13.875Z" fill="#2C5697"/>
<path d="M6.83337 16.5H11.5V18H6.83337V16.5Z" fill="#2C5697"/>
<path d="M12.5 16.5H17.1667V18H12.5V16.5Z" fill="#2C5697"/>
<path d="M12.5 11.25H17.1667V12.75H12.5V11.25Z" fill="#2C5697"/>
<path d="M12.5 13.875H17.1667V15.375H12.5V13.875Z" fill="#2C5697"/>
</svg>
