<svg width="24" height="24" viewBox="0 0 24 24" fill="none" xmlns="http://www.w3.org/2000/svg">
<path d="M11.0669 16.7764C11.2594 17.1097 11.7405 17.1097 11.933 16.7764L16.5669 8.75009C16.7594 8.41675 16.5188 8.00009 16.1339 8.00009H6.86598C6.48108 8.00009 6.24052 8.41675 6.43297 8.75009L11.0669 16.7764Z" fill="#2C5697"/>
<path fill-rule="evenodd" clip-rule="evenodd" d="M11.0002 20.8772V12.4094H12.0002V20.8772H11.0002Z" fill="#2C5697"/>
<path fill-rule="evenodd" clip-rule="evenodd" d="M8.88306 20.8772C8.88306 20.6011 9.10691 20.3772 9.38306 20.3772H13.617C13.8931 20.3772 14.117 20.6011 14.117 20.8772C14.117 21.1533 13.8931 21.3772 13.617 21.3772H9.38306C9.10691 21.3772 8.88306 21.1533 8.88306 20.8772Z" fill="#2C5697"/>
<path d="M7.6156 15.3345C7.64599 15.2787 7.6738 15.2215 7.69891 15.163C7.85417 14.7987 7.89413 14.3992 7.81169 14.0355C7.72926 13.6718 7.52976 13.3675 7.24868 13.1767C7.23485 13.1625 7.22027 13.1493 7.205 13.137L5.44138 12.0977C5.41844 12.0839 5.39997 12.0631 5.38794 12.0373C5.37591 12.0115 5.37075 11.9817 5.37301 11.9511C5.37528 11.9205 5.38488 11.8902 5.4008 11.8634C5.41672 11.8367 5.43837 11.8144 5.46348 11.7989L6.0998 11.4127C6.17339 11.3681 6.24 11.3086 6.29581 11.2378C6.35163 11.1669 6.39557 11.086 6.42511 10.9996C6.45466 10.9133 6.46924 10.8232 6.46801 10.7345C6.46679 10.6458 6.44979 10.5602 6.41798 10.4827C6.38617 10.4052 6.34018 10.3372 6.28263 10.2827C6.22508 10.2281 6.15711 10.1881 6.08258 10.1648C6.00805 10.1415 5.92843 10.1355 5.84827 10.147C5.76811 10.1586 5.68897 10.1875 5.61538 10.2321L4.1947 11.0949C4.04267 11.1871 3.91134 11.321 3.81473 11.4824C3.71812 11.6439 3.65986 11.8267 3.64617 12.0113C3.63247 12.196 3.66385 12.3757 3.73696 12.5311C3.81007 12.6866 3.92217 12.812 4.06129 12.8939L5.14779 13.534C5.16536 13.5444 5.18039 13.559 5.19195 13.5769C5.2035 13.5949 5.21135 13.6157 5.21499 13.6381C5.21896 13.6611 5.21829 13.6853 5.21304 13.7092C5.20779 13.733 5.19807 13.7559 5.18456 13.7762C5.16513 13.8067 5.14661 13.8381 5.129 13.8704C5.02354 14.0647 4.95126 14.2761 4.91631 14.4925C4.88135 14.7088 4.8844 14.9259 4.92528 15.1313C5.00783 15.5461 5.23946 15.8882 5.5692 16.0824C5.89894 16.2766 6.29979 16.3068 6.68357 16.1666C7.06734 16.0263 7.4026 15.727 7.6156 15.3345Z" fill="#2C5697"/>
<path d="M6.74871 19.5838C6.77992 19.5903 6.81146 19.5953 6.84319 19.5988C7.04073 19.6203 7.23837 19.5812 7.40097 19.4886C7.56357 19.3961 7.6806 19.2559 7.73124 19.0932C7.73604 19.0845 7.74028 19.0755 7.74396 19.0664L7.98595 18.0682C7.9892 18.0552 7.99654 18.0433 8.00717 18.0338C8.0178 18.0242 8.03134 18.0174 8.04636 18.014C8.06137 18.0107 8.07731 18.0109 8.09249 18.0146C8.10767 18.0183 8.12153 18.0255 8.13261 18.0353L8.41078 18.2845C8.44292 18.3134 8.48116 18.3367 8.52332 18.3531C8.56549 18.3696 8.61074 18.3789 8.65651 18.3805C8.70227 18.3821 8.74765 18.376 8.79005 18.3625C8.83245 18.349 8.87105 18.3283 8.90363 18.3018C8.93621 18.2752 8.96215 18.2432 8.97995 18.2076C8.99775 18.1721 9.00708 18.1336 9.00739 18.0944C9.00771 18.0552 8.99901 18.0161 8.98178 17.9793C8.96456 17.9425 8.93915 17.9087 8.90701 17.8799L8.28573 17.3235C8.21931 17.264 8.13586 17.2204 8.04429 17.1976C7.95272 17.1747 7.85647 17.1734 7.7658 17.1937C7.67512 17.2141 7.59344 17.2553 7.52947 17.3131C7.46549 17.3708 7.42162 17.4429 7.40254 17.5216L7.25358 18.1366C7.25112 18.1465 7.24628 18.1559 7.23937 18.164C7.23245 18.1722 7.2236 18.179 7.21337 18.184C7.20292 18.1893 7.19118 18.1925 7.17897 18.1934C7.16676 18.1944 7.15436 18.193 7.14263 18.1895C7.12515 18.1846 7.10738 18.1803 7.08931 18.1766C6.98063 18.1543 6.86861 18.1504 6.75965 18.1651C6.65068 18.1798 6.5469 18.2129 6.45424 18.2625C6.2671 18.3626 6.13659 18.5236 6.09142 18.7103C6.04625 18.8969 6.09013 19.0937 6.21339 19.2576C6.33666 19.4214 6.52922 19.5387 6.74871 19.5838Z" fill="#2C5697"/>
<path d="M9.85063 2.59869C9.9681 2.40437 10.2656 2.47389 10.2848 2.70015L10.3821 3.84796C10.3907 3.94915 10.4634 4.0333 10.5623 4.05641L11.684 4.31855C11.9051 4.37022 11.931 4.67465 11.7217 4.76282L10.6601 5.21006C10.5666 5.24949 10.509 5.34469 10.5176 5.44588L10.6149 6.59368C10.6341 6.81994 10.3525 6.93857 10.204 6.76679L9.45062 5.8954C9.3842 5.81858 9.27588 5.79326 9.18229 5.83269L8.12074 6.27993C7.91148 6.3681 7.71166 6.13698 7.82913 5.94266L8.42506 4.95686C8.4776 4.86996 8.4682 4.75911 8.40178 4.68229L7.64839 3.81089C7.49988 3.63912 7.65794 3.37766 7.87905 3.42933L9.00075 3.69147C9.09964 3.71458 9.20216 3.67139 9.25469 3.58449L9.85063 2.59869Z" fill="#2C5697"/>
<path d="M17.8478 9.76876C17.8202 9.63881 17.975 9.54943 18.0737 9.63833L18.5746 10.0893C18.6187 10.129 18.6834 10.1359 18.7349 10.1061L19.3186 9.76917C19.4336 9.70274 19.5664 9.82235 19.5124 9.94372L19.2383 10.5594C19.2141 10.6137 19.2277 10.6773 19.2718 10.7171L19.7727 11.1681C19.8714 11.257 19.7987 11.4203 19.6666 11.4064L18.9963 11.3359C18.9372 11.3297 18.8808 11.3623 18.8567 11.4165L18.5825 12.0322C18.5285 12.1536 18.3507 12.1349 18.3231 12.005L18.183 11.3457C18.1706 11.2876 18.1223 11.2441 18.0632 11.2379L17.3929 11.1674C17.2608 11.1535 17.2236 10.9787 17.3387 10.9122L17.9223 10.5753C17.9738 10.5456 18.0003 10.4861 17.9879 10.428L17.8478 9.76876Z" fill="#2C5697"/>
<path d="M17.5 13C16.8078 13 16.1311 13.2053 15.5555 13.5899C14.9799 13.9744 14.5313 14.5211 14.2664 15.1606C14.0015 15.8001 13.9322 16.5039 14.0673 17.1828C14.2023 17.8617 14.5356 18.4854 15.0251 18.9749C15.5146 19.4644 16.1383 19.7977 16.8172 19.9327C17.4961 20.0678 18.1999 19.9985 18.8394 19.7336C19.4789 19.4687 20.0256 19.0201 20.4101 18.4445C20.7947 17.8689 21 17.1922 21 16.5C20.999 15.5721 20.6299 14.6824 19.9738 14.0262C19.3176 13.3701 18.428 13.001 17.5 13V13ZM17.7955 14.2142C17.7954 14.1857 17.8036 14.1579 17.8191 14.134C17.8347 14.1102 17.8569 14.0914 17.883 14.08L18.6929 13.7341C18.712 13.726 18.7326 13.722 18.7533 13.7225C18.774 13.7229 18.7944 13.7278 18.8131 13.7367C19.1496 13.898 19.454 14.1192 19.7114 14.3895C19.7258 14.4045 19.7367 14.4224 19.7436 14.4419C19.7505 14.4615 19.7532 14.4823 19.7514 14.503L19.67 15.4223C19.668 15.4466 19.66 15.47 19.6466 15.4904C19.6333 15.5107 19.6151 15.5274 19.5936 15.539L19.0295 15.8414C19.0053 15.8544 18.9779 15.8603 18.9505 15.8583C18.9231 15.8564 18.8968 15.8468 18.8746 15.8306L17.8538 15.088C17.8352 15.0745 17.8201 15.0567 17.8097 15.0362C17.7993 15.0156 17.7939 14.9929 17.794 14.9699L17.7955 14.2142ZM15.2947 14.3822C15.5515 14.1142 15.8548 13.8949 16.1898 13.735C16.2085 13.726 16.2289 13.7212 16.2496 13.7207C16.2704 13.7203 16.2909 13.7242 16.31 13.7324L17.1235 14.0792C17.1495 14.0906 17.1717 14.1093 17.1873 14.1332C17.2028 14.157 17.2111 14.1849 17.211 14.2133V14.9702C17.2108 14.993 17.2052 15.0154 17.1948 15.0357C17.1843 15.0559 17.1693 15.0735 17.1509 15.0869L16.1592 15.8096C16.1378 15.8253 16.1124 15.8349 16.086 15.8373C16.0595 15.8396 16.0329 15.8347 16.009 15.823L15.4172 15.534C15.3946 15.523 15.3753 15.5063 15.361 15.4856C15.3467 15.4649 15.3381 15.4409 15.3358 15.4159L15.2542 14.496C15.2524 14.4752 15.2551 14.4543 15.2621 14.4347C15.2691 14.4151 15.2802 14.3972 15.2947 14.3822ZM16.2657 17.8166L15.937 18.1835C15.9195 18.2029 15.8972 18.2173 15.8723 18.2251C15.8474 18.233 15.8209 18.234 15.7955 18.2281L14.9007 18.0219C14.8805 18.0173 14.8615 18.0084 14.845 17.9959C14.8285 17.9834 14.8149 17.9675 14.805 17.9493C14.6298 17.6247 14.5151 17.2708 14.4667 16.9051C14.464 16.8849 14.4656 16.8644 14.4713 16.8449C14.477 16.8253 14.4868 16.8072 14.4999 16.7917L15.0614 16.1453C15.0831 16.1204 15.1127 16.1036 15.1452 16.0976C15.1777 16.0917 15.2113 16.097 15.2405 16.1127L15.853 16.4414C15.8862 16.4591 15.9113 16.489 15.923 16.5248L16.2954 17.6757C16.3031 17.6998 16.3044 17.7254 16.2991 17.7501C16.2939 17.7748 16.2824 17.7977 16.2657 17.8166ZM18.599 18.6916L18.1501 19.4432C18.1395 19.4611 18.1251 19.4765 18.108 19.4884C18.0909 19.5002 18.0714 19.5083 18.051 19.512C17.6903 19.5777 17.3207 19.5782 16.9598 19.5135C16.9393 19.5098 16.9198 19.5018 16.9026 19.4899C16.8855 19.478 16.8711 19.4626 16.8604 19.4447L16.4098 18.6927C16.3937 18.666 16.3867 18.6348 16.3897 18.6038C16.3927 18.5728 16.4056 18.5436 16.4264 18.5204L16.7548 18.1537C16.7685 18.1385 16.7853 18.1263 16.804 18.1179C16.8228 18.1096 16.8431 18.1053 16.8636 18.1053H18.1449C18.1654 18.1053 18.1857 18.1096 18.2044 18.1179C18.2232 18.1263 18.24 18.1385 18.2537 18.1537L18.5818 18.5204C18.6026 18.5435 18.6154 18.5727 18.6184 18.6037C18.6213 18.6346 18.6144 18.6658 18.5984 18.6925L18.599 18.6916ZM20.1956 17.9484C20.1857 17.9666 20.1721 17.9825 20.1556 17.995C20.1391 18.0076 20.1201 18.0164 20.0999 18.021L19.2051 18.2272C19.1797 18.2331 19.1531 18.2321 19.1283 18.2243C19.1034 18.2164 19.0811 18.202 19.0636 18.1826L18.7349 17.8157C18.718 17.7966 18.7065 17.7734 18.7013 17.7484C18.6962 17.7235 18.6977 17.6976 18.7058 17.6734L19.0782 16.5225C19.0899 16.4867 19.115 16.4568 19.1482 16.439L19.7607 16.1103C19.7898 16.0947 19.8233 16.0895 19.8558 16.0954C19.8883 16.1013 19.9178 16.1181 19.9395 16.143L20.5001 16.7917C20.5136 16.8073 20.5237 16.8256 20.5297 16.8454C20.5356 16.8652 20.5372 16.8861 20.5345 16.9066C20.4855 17.2719 20.3705 17.6252 20.195 17.9493L20.1956 17.9484Z" fill="#2C5697"/>
</svg>
