<svg width="24" height="24" viewBox="0 0 24 24" fill="none" xmlns="http://www.w3.org/2000/svg">
<path d="M17.4444 4V5.77778H15.6667V4H8.55556V5.77778H6.77778V4H5V20H6.77778V18.2222H8.55556V20H15.6667V18.2222H17.4444V20H19.2222V4H17.4444ZM8.55556 16.4444H6.77778V14.6667H8.55556V16.4444ZM8.55556 12.8889H6.77778V11.1111H8.55556V12.8889ZM8.55556 9.33333H6.77778V7.55556H8.55556V9.33333ZM17.4444 16.4444H15.6667V14.6667H17.4444V16.4444ZM17.4444 12.8889H15.6667V11.1111H17.4444V12.8889ZM17.4444 9.33333H15.6667V7.55556H17.4444V9.33333Z" fill="#2C5697"/>
</svg>
