<svg width="24" height="24" viewBox="0 0 24 24" fill="none" xmlns="http://www.w3.org/2000/svg">
<path fill-rule="evenodd" clip-rule="evenodd" d="M12.4369 2.50969C12.3666 2.25998 12.2153 2.08495 11.9665 2H11.927C11.919 2.00282 11.9111 2.00615 11.9033 2.00947C11.8869 2.01638 11.8706 2.02328 11.8535 2.02568C11.8008 2.03311 11.726 2.04264 11.6319 2.05464C10.8495 2.15442 8.73144 2.42454 6.83177 3.0668C4.96195 3.69896 3.30374 4.69164 2.54698 5.14468C2.44243 5.20726 2.35508 5.25955 2.28676 5.29917C2.0008 5.46472 1.94313 5.65437 2.05017 5.97204C2.10286 6.12908 2.16472 6.28303 2.2266 6.43702C2.27743 6.56353 2.32827 6.69006 2.37405 6.81837C2.98192 8.52089 3.71026 10.1638 4.76051 11.6466C5.46989 12.6482 6.29815 13.5333 7.35235 14.1836C7.85081 14.491 8.3789 14.7304 8.91448 14.8592C9.1957 13.9016 9.47347 12.9564 9.75417 12.0012L9.89877 11.5091C8.80571 11.7712 8.08727 12.5697 7.36698 13.3703L7.36183 13.376C7.35675 13.367 7.35211 13.3599 7.34825 13.3541C7.34161 13.344 7.33734 13.3375 7.33734 13.331C7.33655 13.2982 7.33734 13.265 7.34208 13.2326C7.44477 12.5558 7.63792 11.9094 8.03447 11.3428C8.5669 10.5822 9.29445 10.2274 10.2262 10.353C10.3787 10.3736 10.4458 10.3491 10.509 10.2076C10.5484 10.1194 10.5875 10.031 10.6265 9.94262C10.8134 9.52001 11.0005 9.09675 11.2204 8.69158C11.5881 8.01436 12.2078 7.72356 12.9563 7.84763C13.1269 7.87581 13.2931 7.93131 13.461 7.98736C13.5379 8.01304 13.6151 8.03883 13.6933 8.06217C13.6933 8.04978 13.6939 8.03677 13.6945 8.02342C13.6958 7.99378 13.6972 7.96242 13.6925 7.93218C13.6589 7.71387 13.6295 7.49455 13.6001 7.27523C13.5324 6.7705 13.4647 6.26576 13.3457 5.7733C13.1598 5.004 12.9384 4.24306 12.717 3.48216C12.6227 3.15821 12.5284 2.83427 12.4369 2.50969ZM7.69361 7.63229C6.47589 7.27669 4.95563 8.40908 5.05793 9.5952C6.44035 9.79552 7.45504 9.12897 7.69361 7.63229ZM9.12501 6.95349C10.2357 7.9713 11.404 7.87924 12.3666 6.88C11.3547 5.87958 10.1204 5.90606 9.12501 6.95349ZM18.5303 19.3436C20.0178 17.7382 21.0475 15.8405 21.999 13.8938C21.999 13.8673 21.999 13.8413 21.9994 13.8148C21.9488 13.5888 21.7991 13.4394 21.6198 13.3079C21.5865 13.2835 21.5307 13.2407 21.4549 13.1825C20.9108 12.7646 19.3337 11.5535 17.6151 10.6934C15.9489 9.85933 14.1459 9.37712 13.2204 9.12958C13.0928 9.09546 12.982 9.0658 12.8904 9.04029C12.5136 8.93559 12.3264 9.03081 12.1668 9.39668C12.0647 9.63078 11.9615 9.86447 11.8582 10.0982C11.5074 10.8924 11.1565 11.6867 10.8495 12.4975C10.2425 14.1016 9.87039 15.7595 9.95886 17.4913C10.0228 18.7466 10.3594 19.9153 11.1485 20.9189C11.5637 21.4467 12.0495 21.8644 12.7608 21.9572C13.7708 22.0896 14.7254 21.9094 15.6442 21.5048C16.771 21.0082 17.7 20.2393 18.5303 19.3436ZM11.8579 18.3582C11.5712 17.6367 11.5028 16.882 11.5779 16.0981C11.5897 16.118 11.6016 16.1379 11.6135 16.1577C11.6373 16.1974 11.6611 16.2371 11.6845 16.2771C12.0408 16.8876 12.45 17.4534 12.98 17.9303C13.4358 18.3404 13.9726 18.5561 14.5686 18.5873C15.0183 18.6107 15.4694 18.6052 15.9207 18.5997C16.1158 18.5973 16.3108 18.5949 16.5058 18.5948C15.8617 19.1358 15.162 19.5788 14.3222 19.7418C13.2072 19.958 12.2869 19.4376 11.8579 18.3582ZM16.5134 18.5882C16.5169 18.5841 16.5181 18.5779 16.5178 18.5758C16.5175 18.5736 16.5157 18.5756 16.5134 18.5882ZM18.7949 16.6857C18.2518 15.3364 17.1083 14.8599 15.8511 15.2321C16.3413 16.5347 17.4674 17.0504 18.7949 16.6857ZM14.8408 14.7378C14.3348 13.3861 13.0922 12.9234 11.9314 13.315C12.4567 14.6098 13.5615 15.1084 14.8408 14.7378Z" fill="#2C5697"/>
</svg>
