<svg id="Layer_1" data-name="Layer 1" xmlns="http://www.w3.org/2000/svg" viewBox="0 0 510.94 73.41"><defs><style>.cls-1{fill:#2f529f;}.cls-2{fill:#fbe008;}.cls-3{fill:#009e78;}.cls-4{fill:#e10f33;}.cls-5{fill:#774d98;}.cls-6{fill:#73226b;}.cls-7{fill:#fff;}</style></defs><path class="cls-1" d="M37.6,40.06q10.2,0,15.4,3.85t5.2,11.33a11.75,11.75,0,0,1-2,6.83,12.85,12.85,0,0,1-5.36,4.5,13.18,13.18,0,0,1,6.1,4.55,11.73,11.73,0,0,1,2.41,7.22c0,5-1.72,8.79-5.14,11.42s-8.5,3.94-15.25,3.94H14.53V40.06ZM27.33,50.84V61.41h10q7.59,0,7.59-5.32T37.3,50.84Zm0,21.26V83h11a10.86,10.86,0,0,0,5.84-1.28,4.64,4.64,0,0,0,2-4.2,4.53,4.53,0,0,0-2-4.14,11,11,0,0,0-5.84-1.26Z" transform="translate(-14.53 -27.1)"/><path class="cls-1" d="M113.28,72.06q0,10.89-6.22,16.77T89.78,94.71c-7.39,0-13.13-2-17.26-5.87s-6.19-9.5-6.19-16.78v-32H79.17v31.5q0,5.35,2.83,8.11a10.73,10.73,0,0,0,7.77,2.73,10.83,10.83,0,0,0,7.82-2.73q2.84-2.73,2.83-8.11V40.06h12.83v32Z" transform="translate(-14.53 -27.1)"/><path class="cls-1" d="M148.83,39.07q12.48,0,19.95,7.77l-9.11,9a15,15,0,0,0-11.46-4.71,13.9,13.9,0,0,0-10.61,4.4,16,16,0,0,0-4.14,11.38q0,7.44,4.27,11.77A14.18,14.18,0,0,0,148.25,83q11.3,0,13.57-9.69H148.75V63.4H174.5a31.51,31.51,0,0,1-1.85,15.48,24.26,24.26,0,0,1-5.74,8.62,25.84,25.84,0,0,1-8.3,5.29,26.44,26.44,0,0,1-9.9,1.87,30.84,30.84,0,0,1-11.17-2,27.62,27.62,0,0,1-9-5.59,25.41,25.41,0,0,1-6-8.82,28.77,28.77,0,0,1-2.21-11.36,28.46,28.46,0,0,1,3.63-14.39,25.56,25.56,0,0,1,10.16-9.88A30.38,30.38,0,0,1,148.83,39.07Z" transform="translate(-14.53 -27.1)"/><path class="cls-1" d="M230.9,93.71H217.26L213.2,82.45H191.9l-4.07,11.26H174.46L195,40.06h15.29ZM196,70.88h13l-6.51-18.09Z" transform="translate(-14.53 -27.1)"/><path class="cls-1" d="M259.29,40.06q10.2,0,15.4,3.85c3.48,2.57,5.2,6.35,5.2,11.33a11.81,11.81,0,0,1-2,6.83,12.92,12.92,0,0,1-5.36,4.5,13.21,13.21,0,0,1,6.09,4.55A11.67,11.67,0,0,1,281,78.34c0,5-1.71,8.79-5.13,11.42s-8.51,3.94-15.26,3.94H236.21V40.06ZM249,50.84V61.41h10q7.59,0,7.59-5.32T259,50.84Zm0,21.26V83h11a10.88,10.88,0,0,0,5.84-1.28,4.64,4.64,0,0,0,2-4.2,4.53,4.53,0,0,0-2-4.14A11,11,0,0,0,260,72.1Z" transform="translate(-14.53 -27.1)"/><path class="cls-1" d="M402.59,55.78a25.89,25.89,0,0,0-5.8-8.83h0a2.47,2.47,0,0,1-.7-2.26l1.25-6.35a1.36,1.36,0,0,1,1-1.08,5.18,5.18,0,1,0-5.53-2A1.6,1.6,0,0,1,393,37l-2.26,4.56c-.38.61-2.17-.05-2.89-.34a31.82,31.82,0,0,0-22.79,0,26.39,26.39,0,0,0-9,5.77,25.87,25.87,0,0,0-5.81,8.83,30.28,30.28,0,0,0,0,22.21,26,26,0,0,0,5.81,8.83,26.65,26.65,0,0,0,9,5.77,31.82,31.82,0,0,0,22.79,0,26.89,26.89,0,0,0,9-5.77,26.19,26.19,0,0,0,5.8-8.83,30.28,30.28,0,0,0,0-22.21ZM387.18,78.11a15.5,15.5,0,0,1-21.49,0,15.46,15.46,0,0,1-4.2-11.23,15.45,15.45,0,0,1,4.2-11.22,15.5,15.5,0,0,1,21.49,0,15.49,15.49,0,0,1,4.2,11.22A15.51,15.51,0,0,1,387.18,78.11Z" transform="translate(-14.53 -27.1)"/><path class="cls-1" d="M286.31,66.88A29.22,29.22,0,0,0,288.42,78a26.26,26.26,0,0,0,5.81,8.83,26.85,26.85,0,0,0,9,5.77,31.82,31.82,0,0,0,22.79,0,26.79,26.79,0,0,0,9-5.77,26,26,0,0,0,5.8-8.83,30.28,30.28,0,0,0,0-22.21A25.75,25.75,0,0,0,335,47a26.54,26.54,0,0,0-9-5.77,31.82,31.82,0,0,0-22.79,0c-.71.29-2.52.94-2.89.34L298,37a1.64,1.64,0,0,1,.16-1.68,5.16,5.16,0,1,0-9.06-1.34,5.21,5.21,0,0,0,3.53,3.31,1.44,1.44,0,0,1,1,1.08l1.25,6.35a2.52,2.52,0,0,1-.7,2.26h0a26.16,26.16,0,0,0-5.81,8.83A29,29,0,0,0,286.31,66.88Zm13.33,0a15.48,15.48,0,0,1,4.19-11.22,15.51,15.51,0,0,1,21.5,0,15.49,15.49,0,0,1,4.2,11.22,15.5,15.5,0,0,1-4.2,11.23,15.51,15.51,0,0,1-21.5,0A15.46,15.46,0,0,1,299.64,66.88Z" transform="translate(-14.53 -27.1)"/><path class="cls-1" d="M513.85,52.5a41.46,41.46,0,0,1,11.62,21.62V50.56A16.32,16.32,0,0,0,511,34.36l-1.71-.18A65.91,65.91,0,0,1,513,51.66Z" transform="translate(-14.53 -27.1)"/><path class="cls-2" d="M525.47,82.07v-5a54.92,54.92,0,0,1-5.25,5.08,54.1,54.1,0,0,1-17.67,9.91,65.7,65.7,0,0,1-5.72,7.52c4.72-.35,9.44-.78,14.15-1.33A16.31,16.31,0,0,0,525.47,82.07Z" transform="translate(-14.53 -27.1)"/><path class="cls-3" d="M513,51.66a65.52,65.52,0,0,1-10.4,40.41,54.1,54.1,0,0,0,17.67-9.91,54.92,54.92,0,0,0,5.25-5.08v-3A41.53,41.53,0,0,0,513.85,52.5Z" transform="translate(-14.53 -27.1)"/><path class="cls-4" d="M443.48,75a53.94,53.94,0,0,1-11.87-40.47,16.31,16.31,0,0,0-13.43,16V82.08a16.32,16.32,0,0,0,14.49,16.2c4.64.53,9.3,1,13.95,1.31A42,42,0,0,1,443.48,75Z" transform="translate(-14.53 -27.1)"/><path class="cls-5" d="M443.48,75A41.72,41.72,0,0,1,513,51.65a65.9,65.9,0,0,0-3.68-17.49,344.2,344.2,0,0,0-76.6.18c-.36,0-.72.11-1.06.17A54,54,0,0,0,443.48,75Z" transform="translate(-14.53 -27.1)"/><path class="cls-4" d="M444,75.59l-.47-.58a41.94,41.94,0,0,0,3.14,24.57,343.46,343.46,0,0,0,50.21,0,66.59,66.59,0,0,0,5.72-7.52A54.11,54.11,0,0,1,444,75.59Z" transform="translate(-14.53 -27.1)"/><path class="cls-6" d="M513,51.66A41.72,41.72,0,0,0,443.48,75c.16.19.3.39.47.57a54.13,54.13,0,0,0,58.6,16.48A65.56,65.56,0,0,0,513,51.66Z" transform="translate(-14.53 -27.1)"/><path class="cls-7" d="M468.45,58.22h-9.2V82.45h-7.42V58.22H442.6V51.34h23.28Z" transform="translate(-14.53 -27.1)"/><path class="cls-7" d="M489.56,82.44h-8.84L469.21,51.33h7.89l8.08,23.47,8.13-23.47h7.74Z" transform="translate(-14.53 -27.1)"/></svg>