<svg width="24" height="24" viewBox="0 0 24 24" fill="none" xmlns="http://www.w3.org/2000/svg">
<path fill-rule="evenodd" clip-rule="evenodd" d="M20 4H4V20H20V4ZM5 12.7087C5 13.1766 5.07996 13.6155 5.23835 14.0239C5.39673 14.4323 5.61662 14.7796 5.89495 15.0691C6.17328 15.3585 6.51158 15.5852 6.90984 15.7508C7.30658 15.9164 7.73714 16 8.19999 16C8.66284 16 9.09187 15.9164 9.49013 15.7508C9.88686 15.5852 10.2252 15.3569 10.505 15.0691C10.7834 14.7812 11.0032 14.4323 11.1616 14.0239C11.32 13.6155 11.4 13.1782 11.4 12.7087C11.4 12.2408 11.32 11.8019 11.1616 11.3935C11.0032 10.9851 10.7834 10.6378 10.505 10.3484C10.2267 10.0606 9.8884 9.83226 9.49013 9.66665C9.0934 9.50104 8.66284 9.41743 8.19999 9.41743C7.73714 9.41743 7.30811 9.50104 6.90984 9.66665C6.82988 9.70042 6.62537 9.77759 6.58385 9.70524L6.32705 9.16661C6.2963 9.10229 6.30552 9.02672 6.3455 8.96884C6.4716 8.78715 6.49927 8.53633 6.38395 8.31444C6.27169 8.1006 6.04103 7.97518 5.80884 8.00413C5.42595 8.05236 5.20298 8.44789 5.31985 8.80805C5.38443 9.00743 5.5382 9.14731 5.71965 9.19876C5.77808 9.21484 5.82268 9.26469 5.83498 9.32739L5.97799 10.0895C5.99644 10.1844 5.96261 10.2792 5.89649 10.3468L5.89495 10.3484C5.61662 10.6362 5.39673 10.9851 5.23835 11.3935C5.07996 11.8019 5 12.2392 5 12.7087ZM6.5085 12.7087C6.5085 12.1653 6.66689 11.7215 6.98365 11.3806C7.30042 11.0398 7.70484 10.8677 8.19999 10.8677C8.6936 10.8677 9.09955 11.0382 9.41632 11.3806C9.73309 11.7215 9.89148 12.1653 9.89148 12.7087C9.89148 13.2522 9.73309 13.6959 9.41632 14.0368C9.09955 14.3777 8.69513 14.5497 8.19999 14.5497C7.70638 14.5497 7.30042 14.3793 6.98365 14.0368C6.66689 13.6943 6.5085 13.2522 6.5085 12.7087ZM18.5617 11.3935C18.4033 10.9851 18.1834 10.6378 17.9051 10.3484L17.9035 10.3468C17.8374 10.2792 17.8051 10.1844 17.822 10.0895L17.965 9.32739C17.9773 9.26469 18.0219 9.21645 18.0804 9.19876C18.2603 9.14731 18.4156 9.00743 18.4802 8.80805C18.597 8.44789 18.3741 8.05236 17.9912 8.00413C17.7605 7.97518 17.5283 8.1006 17.4161 8.31444C17.2992 8.53633 17.3284 8.78715 17.4545 8.96884C17.4945 9.02672 17.5037 9.10229 17.473 9.16661L17.2162 9.70524C17.1746 9.77759 16.9701 9.70042 16.8902 9.66665C16.4934 9.50104 16.0629 9.41743 15.6 9.41743C15.1372 9.41743 14.7081 9.50104 14.3099 9.66665C13.9131 9.83226 13.5748 10.0606 13.295 10.3484C13.0166 10.6362 12.7968 10.9851 12.6384 11.3935C12.48 11.8019 12.4 12.2392 12.4 12.7087C12.4 13.1766 12.48 13.6155 12.6384 14.0239C12.7968 14.4323 13.0166 14.7796 13.295 15.0691C13.5733 15.3585 13.9116 15.5852 14.3099 15.7508C14.7066 15.9164 15.1372 16 15.6 16C16.0629 16 16.4919 15.9164 16.8902 15.7508C17.2869 15.5852 17.6252 15.3569 17.9051 15.0691C18.1834 14.7812 18.4033 14.4323 18.5617 14.0239C18.72 13.6155 18.8 13.1782 18.8 12.7087C18.8 12.2392 18.72 11.8019 18.5617 11.3935ZM16.8163 14.0368C16.4996 14.3777 16.0952 14.5497 15.6 14.5497C15.1064 14.5497 14.7004 14.3793 14.3837 14.0368C14.0669 13.6959 13.9085 13.2522 13.9085 12.7087C13.9085 12.1653 14.0669 11.7215 14.3837 11.3806C14.7004 11.0398 15.1049 10.8677 15.6 10.8677C16.0936 10.8677 16.4996 11.0382 16.8163 11.3806C17.1331 11.7215 17.2915 12.1653 17.2915 12.7087C17.2915 13.2522 17.1331 13.6943 16.8163 14.0368Z" fill="#2C5697"/>
</svg>
